<?xml version="1.0" encoding="UTF-8"?>
<svg version="1.1" xmlns="http://www.w3.org/2000/svg" width="259" height="194">
<path d="M0 0 C85.47 0 170.94 0 259 0 C259 64.02 259 128.04 259 194 C173.53 194 88.06 194 0 194 C0 129.98 0 65.96 0 0 Z " fill="#D71920" transform="translate(0,0)"/>
<path d="M0 0 C2.46645256 2.46645256 2.92087652 3.51856674 3 7 C1.76210262 8.46593111 0.51835411 9.92832929 -0.78125 11.33984375 C-2.92595666 14.26131917 -3 17.5069058 -3 21 C-3 21.66257812 -3 22.32515625 -3 23.0078125 C-2.65138745 28.56382507 -0.49411751 32.71401449 3 37 C6.69432172 39.99539599 11.28949503 41.43811074 16 42 C18.3809749 41.5585833 20.31675208 40.86866377 22.5625 39.9375 C25 39 25 39 28 39 C28.66 37.35 29.32 35.7 30 34 C30.66 34 31.32 34 32 34 C32.33 32.35 32.66 30.7 33 29 C33.66 29 34.32 29 35 29 C35.40534196 22.51452871 34.57239229 17.96795011 32 12 C31.505 10.515 31.505 10.515 31 9 C29.50014391 7.33289654 29.50014391 7.33289654 28 6 C28.66 4.02 29.32 2.04 30 0 C35.94021691 4.5552787 39.59139125 8.77417374 42 16 C42.83272797 24.96888982 41.89068148 32.62322268 36.52734375 40.03515625 C31.58100548 45.54278113 25.56183089 48.36786058 18.265625 49.37890625 C10.49581989 49.71910958 3.70459466 48.15016552 -2.296875 43.046875 C-8.31894043 36.76106948 -10.99596432 30.65677539 -11.4375 22 C-11.09217119 12.70489945 -6.2753178 6.46921806 0 0 Z " fill="#FDD802" transform="translate(70,77)"/>
<path d="M0 0 C3.29006715 2.34100932 4.77930417 3.59250465 6.25 7.3125 C6.78751218 11.53580997 6.53625223 13.73999554 4.625 17.5625 C1.08044344 21.66672338 -1.89076946 23.08009618 -7.25 23.75 C-12.24249795 23.12593776 -14.96392141 20.91997073 -18.625 17.625 C-20.43841481 13.89742512 -20.508111 10.36277823 -19.75 6.3125 C-18.07325734 3.16528064 -15.75118419 1.04670174 -12.875 -1.0625 C-8.21730178 -2.43241124 -4.28521138 -2.23773195 0 0 Z " fill="#FDD802" transform="translate(167.75,92.6875)"/>
<path d="M0 0 C2.97 0 5.94 0 9 0 C11.5625 3 11.5625 3 13 6 C13.66 4.02 14.32 2.04 15 0 C17.64 0 20.28 0 23 0 C23 7.92 23 15.84 23 24 C14 24 14 24 11.4375 21.5 C10.963125 20.675 10.48875 19.85 10 19 C9.01 21.475 9.01 21.475 8 24 C5.36 24 2.72 24 0 24 C0 16.08 0 8.16 0 0 Z " fill="#FDD901" transform="translate(176,91)"/>
<path d="M0 0 C2.06499107 0.47434048 2.06499107 0.47434048 4.60546875 -0.4375 C6.91796875 -0.6875 6.91796875 -0.6875 9.73046875 1 C12.98499913 5.92828887 12.33020707 10.56864609 11.91796875 16.3125 C10.92796875 16.3125 9.93796875 16.3125 8.91796875 16.3125 C9.24796875 15.3225 9.57796875 14.3325 9.91796875 13.3125 C9.25796875 13.3125 8.59796875 13.3125 7.91796875 13.3125 C7.91796875 15.2925 7.91796875 17.2725 7.91796875 19.3125 C7.58796875 18.3225 7.25796875 17.3325 6.91796875 16.3125 C5.59796875 16.6425 4.27796875 16.9725 2.91796875 17.3125 C3.24796875 15.9925 3.57796875 14.6725 3.91796875 13.3125 C1.60796875 13.3125 -0.70203125 13.3125 -3.08203125 13.3125 C-0.78570027 18.62970766 -0.78570027 18.62970766 3.91796875 21.4375 C7.31363039 21.2960141 8.50393922 20.63368224 10.91796875 18.3125 C10.62921875 18.869375 10.34046875 19.42625 10.04296875 20 C8.84435057 22.31488964 8.84435057 22.31488964 8.10546875 24.9375 C6.91796875 27.3125 6.91796875 27.3125 4.48046875 28.625 C0.35462361 29.73193406 -2.35007663 29.32201402 -6.08203125 27.3125 C-7.20703125 24.9375 -7.20703125 24.9375 -8.08203125 22.3125 C-8.58476563 21.74144531 -9.0875 21.17039062 -9.60546875 20.58203125 C-12.66803337 15.874756 -11.74170227 9.69135599 -11.08203125 4.3125 C-8.03984188 -0.91626298 -5.47194119 -1.14982629 0 0 Z " fill="#FAD005" transform="translate(85.08203125,85.6875)"/>
<path d="M0 0 C5.42553191 -0.36170213 5.42553191 -0.36170213 7.6875 1.0625 C12.35004617 7.94530625 13.41395756 13.98757385 12 22 C11.34 22 10.68 22 10 22 C9.67 23.65 9.34 25.3 9 27 C8.34 27 7.68 27 7 27 C6.835 27.763125 6.67 28.52625 6.5 29.3125 C4.54509286 32.81504196 2.74510954 33.24781987 -0.95703125 34.44140625 C-3.29045252 35.07941627 -5.60912431 35.62642567 -8 36 C-7.25 33.125 -7.25 33.125 -6 30 C-4.0625 28.9375 -4.0625 28.9375 -2 28 C-0.24677063 25.46811352 -0.24677063 25.46811352 1 23 C-0.24813097 22.95758445 -0.24813097 22.95758445 -2.375 23.625 C-5 24 -5 24 -8 22 C-11 17.55555556 -11 17.55555556 -11 15 C-8.69 15 -6.38 15 -4 15 C-3.67 15.99 -3.34 16.98 -3 18 C-2.34 18 -1.68 18 -1 18 C-0.67 17.01 -0.34 16.02 0 15 C0.66 15 1.32 15 2 15 C2.33 15.99 2.66 16.98 3 18 C3.08133791 16.08404032 3.13934367 14.16708068 3.1875 12.25 C3.22230469 11.18265625 3.25710937 10.1153125 3.29296875 9.015625 C2.96694767 5.65978134 2.14887977 4.50420634 0 2 C0 1.34 0 0.68 0 0 Z " fill="#D71D20" transform="translate(93,84)"/>
<path d="M0 0 C2.05078125 0.03255208 4.1015625 0.06510417 6.15234375 0.09765625 C6.48234375 4.71765625 6.81234375 9.33765625 7.15234375 14.09765625 C10.12234375 14.59265625 10.12234375 14.59265625 13.15234375 15.09765625 C13.25 21.25 13.25 21.25 13.15234375 23.09765625 C12.15234375 24.09765625 12.15234375 24.09765625 9.02734375 24.23046875 C7.74859375 24.22789063 6.46984375 24.2253125 5.15234375 24.22265625 C3.87359375 24.22523437 2.59484375 24.2278125 1.27734375 24.23046875 C-1.84765625 24.09765625 -1.84765625 24.09765625 -2.84765625 23.09765625 C-2.94682195 21.47508081 -2.97845402 19.84825794 -2.98046875 18.22265625 C-2.98175781 17.2378125 -2.98304687 16.25296875 -2.984375 15.23828125 C-2.98050781 14.201875 -2.97664063 13.16546875 -2.97265625 12.09765625 C-2.97845703 10.54304688 -2.97845703 10.54304688 -2.984375 8.95703125 C-2.98308594 7.9721875 -2.98179688 6.98734375 -2.98046875 5.97265625 C-2.97934082 5.06257813 -2.97821289 4.1525 -2.97705078 3.21484375 C-2.81326074 0.53486782 -2.69042426 0.14220001 0 0 Z " fill="#FDD802" transform="translate(121.84765625,90.90234375)"/>
<path d="M0 0 C0.721875 0.00257812 1.44375 0.00515625 2.1875 0.0078125 C2.909375 0.00523438 3.63125 0.00265625 4.375 0 C6.1875 0.1328125 6.1875 0.1328125 7.1875 1.1328125 C7.2866657 2.75538794 7.31829777 4.38221081 7.3203125 6.0078125 C7.32224609 7.48507813 7.32224609 7.48507813 7.32421875 8.9921875 C7.32035156 10.02859375 7.31648437 11.065 7.3125 12.1328125 C7.31636719 13.16921875 7.32023438 14.205625 7.32421875 15.2734375 C7.32292969 16.25828125 7.32164062 17.243125 7.3203125 18.2578125 C7.31918457 19.16789062 7.31805664 20.07796875 7.31689453 21.015625 C7.1875 23.1328125 7.1875 23.1328125 6.1875 24.1328125 C4.375 24.265625 4.375 24.265625 2.1875 24.2578125 C1.465625 24.26039062 0.74375 24.26296875 0 24.265625 C-1.8125 24.1328125 -1.8125 24.1328125 -2.8125 23.1328125 C-2.9116657 21.51023706 -2.94329777 19.88341419 -2.9453125 18.2578125 C-2.94660156 17.27296875 -2.94789063 16.288125 -2.94921875 15.2734375 C-2.94535156 14.23703125 -2.94148437 13.200625 -2.9375 12.1328125 C-2.94330078 10.57820313 -2.94330078 10.57820313 -2.94921875 8.9921875 C-2.94792969 8.00734375 -2.94664062 7.0225 -2.9453125 6.0078125 C-2.94418457 5.09773438 -2.94305664 4.18765625 -2.94189453 3.25 C-2.7794824 0.59256986 -2.66062965 0.19495993 0 0 Z " fill="#FAD004" transform="translate(138.8125,90.8671875)"/>
<path d="M0 0 C2.62386487 3.06117568 3 3.73173127 3 8 C3.66 8 4.32 8 5 8 C5.66 6.68 6.32 5.36 7 4 C7.66 4.33 8.32 4.66 9 5 C9.33 5.99 9.66 6.98 10 8 C10.99 7.67 11.98 7.34 13 7 C13.125 12.75 13.125 12.75 12 15 C8.37515001 15.08681476 4.75056557 15.14032721 1.125 15.1875 C-0.42380859 15.22520508 -0.42380859 15.22520508 -2.00390625 15.26367188 C-2.99003906 15.27333984 -3.97617188 15.28300781 -4.9921875 15.29296875 C-6.35899658 15.31653442 -6.35899658 15.31653442 -7.75341797 15.34057617 C-8.49479004 15.22818604 -9.23616211 15.1157959 -10 15 C-12.1519437 11.77208445 -12.20086443 10.71599191 -12 7 C-11.01 7.33 -10.02 7.66 -9 8 C-9 8.66 -9 9.32 -9 10 C-8.34 10 -7.68 10 -7 10 C-7 8.02 -7 6.04 -7 4 C-5 4 -5 4 -3.375 5.5 C-2.92125 5.995 -2.4675 6.49 -2 7 C-1.855625 6.21625 -1.71125 5.4325 -1.5625 4.625 C-1 2 -1 2 0 0 Z " fill="#FAEBEB" transform="translate(85,68)"/>
<path d="M0 0 C1.65 0 3.3 0 5 0 C5.66 0.99 6.32 1.98 7 3 C7.33 2.01 7.66 1.02 8 0 C9.65 0 11.3 0 13 0 C13 4.29 13 8.58 13 13 C11.02 13 9.04 13 7 13 C6.67 12.34 6.34 11.68 6 11 C5.67 11.66 5.34 12.32 5 13 C3.35 13 1.7 13 0 13 C0 8.71 0 4.42 0 0 Z " fill="#FCF1F0" transform="translate(147,76)"/>
<path d="M0 0 C1.65 0 3.3 0 5 0 C5 1.32 5 2.64 5 4 C5.99 4 6.98 4 8 4 C8 2.68 8 1.36 8 0 C9.65 0 11.3 0 13 0 C13 4.29 13 8.58 13 13 C11.35 13 9.7 13 8 13 C8 11.68 8 10.36 8 9 C7.01 9 6.02 9 5 9 C5 10.32 5 11.64 5 13 C3.35 13 1.7 13 0 13 C0 8.71 0 4.42 0 0 Z " fill="#FCF4F3" transform="translate(119,76)"/>
<path d="M0 0 C1.423125 -0.061875 2.84625 -0.12375 4.3125 -0.1875 C5.51326172 -0.23970703 5.51326172 -0.23970703 6.73828125 -0.29296875 C9 0 9 0 10.78125 1.1875 C12.42341401 3.62969263 12.30107677 5.27236294 12.1875 8.1875 C12.16042969 9.08855469 12.13335937 9.98960938 12.10546875 10.91796875 C12.07066406 11.60503906 12.03585938 12.29210937 12 13 C7.25 12.125 7.25 12.125 5 11 C5 11.66 5 12.32 5 13 C3.35 13 1.7 13 0 13 C0 8.71 0 4.42 0 0 Z " fill="#FBEEEE" transform="translate(174,76)"/>
<path d="M0 0 C1.65 0 3.3 0 5 0 C5 2.64 5 5.28 5 8 C5.99 8 6.98 8 8 8 C8 5.36 8 2.72 8 0 C9.65 0.33 11.3 0.66 13 1 C13.08131463 2.43655854 13.13933559 3.8744483 13.1875 5.3125 C13.22230469 6.11300781 13.25710937 6.91351563 13.29296875 7.73828125 C13 10 13 10 11.70703125 11.76953125 C8.87162069 13.81336266 6.36490235 13.36052525 3 13 C1.29296875 11.80078125 1.29296875 11.80078125 0 10 C-0.29296875 7.51953125 -0.29296875 7.51953125 -0.1875 4.8125 C-0.16042969 3.91144531 -0.13335937 3.01039062 -0.10546875 2.08203125 C-0.07066406 1.39496094 -0.03585938 0.70789063 0 0 Z " fill="#FBF0F0" transform="translate(133,76)"/>
<path d="M0 0 C0 1.65 0 3.3 0 5 C-1.98 5 -3.96 5 -6 5 C-5.67 5.99 -5.34 6.98 -5 8 C-4.67 7.34 -4.34 6.68 -4 6 C-2.35 6 -0.7 6 1 6 C1 8.31 1 10.62 1 13 C-6.15789474 13.35789474 -6.15789474 13.35789474 -9.5 11.9375 C-11 10 -11 10 -11.5 6.5 C-11 3 -11 3 -9.4375 1.0625 C-6.19917389 -0.34907805 -3.49186021 -0.20145347 0 0 Z " fill="#FBEFEF" transform="translate(172,76)"/>
<path d="M0 0 C0.66 0.66 1.32 1.32 2 2 C4.57061311 2.64767793 4.57061311 2.64767793 7 3 C7.33 2.01 7.66 1.02 8 0 C8.33 0.99 8.66 1.98 9 3 C12.3 3.33 15.6 3.66 19 4 C19 4.33 19 4.66 19 5 C18.40832031 5.09796875 17.81664062 5.1959375 17.20703125 5.296875 C12.15165852 6.25351976 8.75233265 7.24766735 5 11 C4.67 11.66 4.34 12.32 4 13 C3.01 13 2.02 13 1 13 C0.67 10.69 0.34 8.38 0 6 C-1.299375 5.87625 -2.59875 5.7525 -3.9375 5.625 C-6.15234375 5.4140625 -6.15234375 5.4140625 -8 5 C-8.33 4.34 -8.66 3.68 -9 3 C-7.88625 2.87625 -6.7725 2.7525 -5.625 2.625 C-1.96896323 2.3534187 -1.96896323 2.3534187 0 0 Z " fill="#D60F1B" transform="translate(145,86)"/>
<path d="M0 0 C2 3 2 3 1.9375 6.5625 C1.958125 7.696875 1.97875 8.83125 2 10 C5.2811302 12.18742014 7.33084356 12.54442806 11.1875 13.125 C13.105625 13.41375 15.02375 13.7025 17 14 C16.67 21.92 16.34 29.84 16 38 C15.67 38 15.34 38 15 38 C14.67 32.72 14.34 27.44 14 22 C13.01 21.67 12.02 21.34 11 21 C11 20.34 11 19.68 11 19 C9.824375 18.5359375 9.824375 18.5359375 8.625 18.0625 C6 17 6 17 4 16 C4 15.34 4 14.68 4 14 C2.68 14 1.36 14 0 14 C0 9.38 0 4.76 0 0 Z " fill="#D9281A" transform="translate(160,76)"/>
<path d="M0 0 C2.375 -0.125 2.375 -0.125 5 0 C5.66 0.66 6.32 1.32 7 2 C7.33 1.34 7.66 0.68 8 0 C9.65 0 11.3 0 13 0 C12.71125 0.845625 12.4225 1.69125 12.125 2.5625 C10.99227296 6.02361041 9.98175684 9.49372557 9 13 C7.35 13 5.7 13 4 13 C3.566875 11.453125 3.566875 11.453125 3.125 9.875 C2.17691202 6.54992003 1.11743406 3.27248547 0 0 Z " fill="#FBF0F0" transform="translate(186,76)"/>
<path d="M0 0 C0 0.99 0 1.98 0 3 C-0.66 3.66 -1.32 4.32 -2 5 C-2.2475 5.639375 -2.495 6.27875 -2.75 6.9375 C-4.62391845 10.02946545 -6.61900222 10.87300074 -10 12 C-12.8125 10.6875 -12.8125 10.6875 -15 9 C-15.33 9 -15.66 9 -16 9 C-16 7.35 -16 5.7 -16 4 C-12.25196322 2.72566749 -9.69459996 1.87978078 -5.75 2.5625 C-4.38875 2.7790625 -4.38875 2.7790625 -3 3 C-1.10041919 1.68681738 -1.10041919 1.68681738 0 0 Z " fill="#FBD403" transform="translate(95,104)"/>
<path d="M0 0 C0.33 0 0.66 0 1 0 C1 1.65 1 3.3 1 5 C3.64 5.33 6.28 5.66 9 6 C9 6.33 9 6.66 9 7 C6.69 7.33 4.38 7.66 2 8 C1.67 10.31 1.34 12.62 1 15 C-1.25245881 12.31158141 -2.88213958 10.35358125 -4 7 C-6.97851562 7.09765625 -6.97851562 7.09765625 -9.95703125 7.1953125 C-12 7 -12 7 -15 5 C-13.35 5 -11.7 5 -10 5 C-10 4.34 -10 3.68 -10 3 C-7.36 3.66 -4.72 4.32 -2 5 C-1.67 3.68 -1.34 2.36 -1 1 C-0.67 0.67 -0.34 0.34 0 0 Z " fill="#D60D18" transform="translate(189,84)"/>
<path d="M0 0 C2.31 0 4.62 0 7 0 C7.33 0.99 7.66 1.98 8 3 C8.66 3 9.32 3 10 3 C10.33 2.01 10.66 1.02 11 0 C11.66 0 12.32 0 13 0 C13.33 0.99 13.66 1.98 14 3 C14.66 2.01 15.32 1.02 16 0 C15.75 2.875 15.75 2.875 15 6 C12.33268635 8.00048524 9.29545938 8.66200417 6 9 C2.81227007 6.87484671 1.75079247 5.33484279 0 2 C0 1.34 0 0.68 0 0 Z " fill="#ED9911" transform="translate(82,99)"/>
<path d="M0 0 C0.9075 0.226875 1.815 0.45375 2.75 0.6875 C1.76 2.1725 1.76 2.1725 0.75 3.6875 C1.08 4.6775 1.41 5.6675 1.75 6.6875 C0.8125 8.875 0.8125 8.875 -0.25 10.6875 C-0.58 10.0275 -0.91 9.3675 -1.25 8.6875 C-2.2090625 8.5328125 -2.2090625 8.5328125 -3.1875 8.375 C-3.868125 8.148125 -4.54875 7.92125 -5.25 7.6875 C-6.5 5.125 -6.5 5.125 -7.25 2.6875 C-4.61280971 0.1517401 -3.74095095 -0.35970682 0 0 Z " fill="#F8C708" transform="translate(82.25,85.3125)"/>
<path d="M0 0 C0.33 3.3 0.66 6.6 1 10 C0.01 10 -0.98 10 -2 10 C-1.67 9.01 -1.34 8.02 -1 7 C-1.66 7 -2.32 7 -3 7 C-3 8.98 -3 10.96 -3 13 C-3.33 12.01 -3.66 11.02 -4 10 C-5.32 10.33 -6.64 10.66 -8 11 C-7.57344655 7.90589584 -7.06520408 4.94276076 -6 2 C-3.78960307 0.65219699 -2.58003798 0 0 0 Z " fill="#FDDC01" transform="translate(96,92)"/>
<path d="M0 0 C1.67542976 0.28604898 3.34385343 0.61781233 5 1 C5 2.65 5 4.3 5 6 C2.625 6.625 2.625 6.625 0 7 C-0.66 6.34 -1.32 5.68 -2 5 C-1.46428571 1.46428571 -1.46428571 1.46428571 0 0 Z " fill="#D61521" transform="translate(159,100)"/>
<path d="M0 0 C0.66 0 1.32 0 2 0 C2 3.96 2 7.92 2 12 C3.32 12 4.64 12 6 12 C6 12.66 6 13.32 6 14 C4.33388095 14.042721 2.66617115 14.04063832 1 14 C0 13 0 13 -0.09765625 10.05859375 C-0.08605469 8.86363281 -0.07445313 7.66867188 -0.0625 6.4375 C-0.05347656 5.23996094 -0.04445313 4.04242188 -0.03515625 2.80859375 C-0.02355469 1.88175781 -0.01195313 0.95492187 0 0 Z " fill="#DC391F" transform="translate(128,92)"/>
<path d="M0 0 C0.99 0 1.98 0 3 0 C3 1.32 3 2.64 3 4 C4.65 4 6.3 4 8 4 C4.09971775 6.60018816 0.52565431 6.15085514 -4 6 C-4.33 5.34 -4.66 4.68 -5 4 C-3.35 4 -1.7 4 0 4 C0 2.68 0 1.36 0 0 Z " fill="#D60D19" transform="translate(124,85)"/>
<path d="M0 0 C2.31 0 4.62 0 7 0 C6.67 1.32 6.34 2.64 6 4 C5.34 4 4.68 4 4 4 C4.66 5.32 5.32 6.64 6 8 C2.24623848 6.74874616 1.75926711 5.4347596 0 2 C0 1.34 0 0.68 0 0 Z " fill="#D71321" transform="translate(82,99)"/>
<path d="M0 0 C0.33 0 0.66 0 1 0 C1.33 1.98 1.66 3.96 2 6 C2.33 5.01 2.66 4.02 3 3 C3.99 3.33 4.98 3.66 6 4 C6 4.66 6 5.32 6 6 C6.66 6.66 7.32 7.32 8 8 C5.6875 8.625 5.6875 8.625 3 9 C2.01 8.34 1.02 7.68 0 7 C-0.1875 3.375 -0.1875 3.375 0 0 Z " fill="#E67418" transform="translate(77,99)"/>
<path d="M0 0 C4 5.09090909 4 5.09090909 5 8 C4.07451225 10.69933926 3.57626463 11.71186768 1 13 C0.83147753 11.39602723 0.66525114 9.7918131 0.5 8.1875 C0.4071875 7.29417969 0.314375 6.40085937 0.21875 5.48046875 C0 3 0 3 0 0 Z " fill="#DA3337" transform="translate(185,76)"/>
<path d="M0 0 C0.94875 0.04125 1.8975 0.0825 2.875 0.125 C2.545 1.445 2.215 2.765 1.875 4.125 C0.225 4.125 -1.425 4.125 -3.125 4.125 C-3.455 4.785 -3.785 5.445 -4.125 6.125 C-4.75 4.25 -4.75 4.25 -5.125 2.125 C-3.125 0.125 -3.125 0.125 0 0 Z " fill="#E35E18" transform="translate(92.125,88.875)"/>
<path d="M0 0 C1.65 0 3.3 0 5 0 C6 3 6 3 5.0625 5.1875 C4.5365625 6.0846875 4.5365625 6.0846875 4 7 C3.67 6.34 3.34 5.68 3 5 C0.97536745 4.34786708 0.97536745 4.34786708 -1 4 C-0.67 2.68 -0.34 1.36 0 0 Z " fill="#DE471C" transform="translate(78,89)"/>
</svg>
