<?xml version="1.0" standalone="no"?>
<!DOCTYPE svg PUBLIC "-//W3C//DTD SVG 20010904//EN"
 "http://www.w3.org/TR/2001/REC-SVG-20010904/DTD/svg10.dtd">
<svg version="1.0" xmlns="http://www.w3.org/2000/svg"
 width="200.000000pt" height="200.000000pt" viewBox="0 0 200.000000 200.000000"
 preserveAspectRatio="xMidYMid meet">

<g transform="translate(0.000000,200.000000) scale(0.100000,-0.100000)"
fill="#000000" stroke="none">
<path d="M800 1966 c-200 -46 -356 -131 -495 -271 -146 -146 -237 -318 -276
-522 -16 -84 -7 -340 15 -417 101 -361 356 -613 718 -714 90 -24 386 -24 476
0 364 101 619 356 720 720 24 90 24 386 0 476 -101 362 -352 616 -714 718 -77
22 -365 29 -444 10z m-28 -821 c9 -72 27 -188 39 -258 16 -91 19 -131 11 -139
-20 -20 -30 2 -47 97 -16 85 -20 95 -39 95 -36 0 -43 -12 -61 -102 -18 -89
-39 -127 -51 -94 -4 9 -4 31 -1 49 48 280 79 446 87 465 6 14 17 22 28 20 14
-3 20 -26 34 -133z m640 4 c9 -68 25 -171 34 -229 29 -175 29 -182 8 -178 -15
2 -23 22 -38 101 -16 87 -21 97 -40 97 -35 0 -44 -12 -56 -80 -16 -94 -29
-130 -47 -130 -19 0 -18 12 35 314 38 209 48 242 77 233 6 -2 18 -59 27 -128z
m-1012 -29 c6 -163 7 -162 51 32 25 111 31 123 53 115 20 -8 18 -19 -23 -184
l-26 -107 29 -113 c20 -78 26 -117 19 -124 -18 -18 -39 15 -53 80 -19 88 -36
78 -49 -29 -4 -39 -10 -55 -21 -55 -13 0 -15 38 -18 268 -2 252 -1 268 15 265
16 -3 19 -20 23 -148z m584 -87 c5 -148 11 -243 18 -251 6 -7 25 -12 42 -10
l31 3 3 248 c2 233 3 247 21 247 27 0 31 -34 31 -274 0 -238 -2 -248 -69 -266
-53 -14 -88 1 -106 45 -12 27 -15 86 -15 265 0 217 1 230 18 230 18 0 19 -16
26 -237z m654 -31 c2 -230 0 -263 -13 -268 -9 -4 -18 -5 -20 -2 -7 7 -18 505
-12 523 4 9 15 15 24 13 17 -3 18 -25 21 -266z"/>
<path d="M716 1085 c-3 -32 -9 -69 -12 -82 -5 -20 -2 -23 21 -23 26 0 26 0 19
57 -13 103 -20 115 -28 48z"/>
<path d="M1356 1071 c-4 -35 -10 -69 -13 -77 -4 -10 3 -14 22 -14 l27 0 -7 63
c-10 89 -21 100 -29 28z"/>
</g>
</svg>
