<?xml version="1.0" encoding="UTF-8"?>
<svg version="1.1" xmlns="http://www.w3.org/2000/svg" width="600" height="600">
<path d="M0 0 C198 0 396 0 600 0 C600 198 600 396 600 600 C402 600 204 600 0 600 C0 402 0 204 0 0 Z " fill="#FEFEFE" transform="translate(0,0)"/>
<path d="M0 0 C0.66 0 1.32 0 2 0 C4.66666667 8 7.33333333 16 10 24 C10.37012207 25.02786621 10.74024414 26.05573242 11.12158203 27.11474609 C12 30 12 30 12 34 C23.88 34 35.76 34 48 34 C42.37842126 39.62157874 42.37842126 39.62157874 38.96875 41.97265625 C37.87626953 42.73352539 37.87626953 42.73352539 36.76171875 43.50976562 C36.01535156 44.02216797 35.26898438 44.53457031 34.5 45.0625 C29.88798669 48.25267501 25.32497543 51.42159771 21 55 C23.37756991 66.88784953 27.04450435 78.54988101 31 90 C28.2019661 88.67004157 25.69781862 87.18179488 23.171875 85.390625 C22.45386719 84.88273437 21.73585938 84.37484375 20.99609375 83.8515625 C20.25488281 83.32304687 19.51367188 82.79453125 18.75 82.25 C18.02425781 81.73695313 17.29851562 81.22390625 16.55078125 80.6953125 C15.82761719 80.18226563 15.10445313 79.66921875 14.359375 79.140625 C13.63685547 78.63080078 12.91433594 78.12097656 12.16992188 77.59570312 C10.6936418 76.51008582 9.25229959 75.37567355 7.84570312 74.20117188 C7.15927734 73.63462891 6.47285156 73.06808594 5.765625 72.484375 C5.16008789 71.96069336 4.55455078 71.43701172 3.93066406 70.89746094 C1.95906341 69.73073972 1.95906341 69.73073972 -0.45605469 70.64990234 C-2.97087008 71.98454045 -5.18770296 73.41536703 -7.46875 75.1171875 C-8.28730469 75.72433594 -9.10585938 76.33148438 -9.94921875 76.95703125 C-10.79097656 77.58996094 -11.63273437 78.22289062 -12.5 78.875 C-13.76263672 79.81279297 -13.76263672 79.81279297 -15.05078125 80.76953125 C-19.09042895 83.77859166 -23.09573541 86.81578421 -27 90 C-27.66 89.67 -28.32 89.34 -29 89 C-28.65219482 88.04130005 -28.65219482 88.04130005 -28.29736328 87.06323242 C-27.23094652 84.10780305 -26.17794033 81.14775613 -25.125 78.1875 C-24.57779297 76.68026367 -24.57779297 76.68026367 -24.01953125 75.14257812 C-21.66529473 68.48650941 -20.03293027 61.98478137 -19 55 C-21.43670041 53.16559568 -23.87419949 51.33227577 -26.3125 49.5 C-27.03566406 48.95625732 -27.75882812 48.41251465 -28.50390625 47.85229492 C-33.67331249 43.97352169 -38.88718899 40.16836429 -44.15625 36.42578125 C-44.7646875 35.95527344 -45.373125 35.48476562 -46 35 C-46 34.67 -46 34.34 -46 34 C-34.12 34 -22.24 34 -10 34 C-9.01 29.71 -8.02 25.42 -7 21 C-6.04502681 17.96899815 -5.05719579 14.99206356 -4 12 C-3.26764998 9.81356369 -2.53859793 7.62602052 -1.8125 5.4375 C-1.20833333 3.625 -0.60416667 1.8125 0 0 Z " fill="#060606" transform="translate(299,213)"/>
<path d="M0 0 C3.94684991 -0.07505712 7.89341427 -0.12902215 11.84082031 -0.16479492 C13.83152905 -0.18701479 15.82203968 -0.22516595 17.8125 -0.26367188 C26.32728536 -0.32817782 34.35148957 -0.09900695 41.625 4.75 C43.65505297 8.07190486 43.6026797 10.18302856 43 14 C40.625 16.9375 40.625 16.9375 38 19 C37.34 19 36.68 19 36 19 C36 19.66 36 20.32 36 21 C36.5775 21.0825 37.155 21.165 37.75 21.25 C40.84461361 22.28153787 42.08928472 23.33864658 44 26 C44.45473048 29.18311337 44.69554906 30.98395537 44 34 C41.12738286 37.77543967 38.47609962 39.59715385 34 41 C31.39163626 41.16464931 28.89680502 41.23392915 26.29296875 41.1953125 C25.56757401 41.1924826 24.84217926 41.18965271 24.09480286 41.18673706 C21.79219632 41.17559799 19.48998773 41.15050566 17.1875 41.125 C15.62044835 41.11496206 14.05339057 41.10583763 12.48632812 41.09765625 C8.65740022 41.0756793 4.82876744 41.04119339 1 41 C1 40.34 1 39.68 1 39 C1.66 39 2.32 39 3 39 C3 26.79 3 14.58 3 2 C2.01 2 1.02 2 0 2 C0 1.34 0 0.68 0 0 Z " fill="#0A0A0A" transform="translate(364,311)"/>
<path d="M0 0 C3.31804319 1.33100211 5.48261708 3.48261708 8 6 C8.37088891 9.93142248 8.48053156 12.22375672 6.375 15.625 C5.92125 16.40875 5.4675 17.1925 5 18 C5.69485264 20.78223378 5.69485264 20.78223378 7 23 C7.721875 22.2575 8.44375 21.515 9.1875 20.75 C16.09090909 14 16.09090909 14 20 14 C20 17.63 20 21.26 20 25 C18.35 25.33 16.7 25.66 15 26 C13.70366379 27.06645115 13.70366379 27.06645115 13.9375 29.5625 C13.958125 30.366875 13.97875 31.17125 14 32 C15.65 32.66 17.3 33.32 19 34 C19.495 33.01 19.495 33.01 20 32 C20 34.97 20 37.94 20 41 C15.64024742 41.35589817 13.03995615 41.25445877 9.5 38.75 C8.345 38.1725 7.19 37.595 6 37 C3.05724814 38.57740465 3.05724814 38.57740465 1.15625 39.9609375 C-4.04650353 42.46806149 -11.32174295 41.84920345 -16.72265625 40.13671875 C-20.08677991 38.4575421 -22.26611115 36.28599902 -24 33 C-24.8950378 29.76137638 -25.00818503 27.21950801 -24 24 C-21.63980947 21.20463334 -18.99793154 19.08115337 -16 17 C-16.680625 16.319375 -17.36125 15.63875 -18.0625 14.9375 C-20 12 -20 12 -20.0625 8.4375 C-18.81401919 4.39829738 -17.51876638 3.23141283 -14 1 C-9.82321684 -1.08839158 -4.54814635 -0.44531459 0 0 Z " fill="#0B0B0B" transform="translate(307,311)"/>
<path d="M0 0 C4.95 0 9.9 0 15 0 C15 0.66 15 1.32 15 2 C14.34 2 13.68 2 13 2 C16.96 8.93 20.92 15.86 25 23 C27.65492328 19.46010229 29.96615524 15.87453649 32.1875 12.0625 C32.55552734 11.45470703 32.92355469 10.84691406 33.30273438 10.22070312 C35.56984369 6.32161159 36 4.70317501 36 0 C40.95 0 45.9 0 51 0 C51 0.66 51 1.32 51 2 C50.34 2 49.68 2 49 2 C49 14.21 49 26.42 49 39 C49.66 39 50.32 39 51 39 C51 39.66 51 40.32 51 41 C47.04 41 43.08 41 39 41 C39 40.34 39 39.68 39 39 C39.66 39 40.32 39 41 39 C40.505 26.625 40.505 26.625 40 14 C39.15695313 15.62550781 38.31390625 17.25101562 37.4453125 18.92578125 C36.33863198 21.05473445 35.2318562 23.18363813 34.125 25.3125 C33.56941406 26.38435547 33.01382813 27.45621094 32.44140625 28.56054688 C31.90644531 29.58857422 31.37148438 30.61660156 30.8203125 31.67578125 C30.32805176 32.62364502 29.83579102 33.57150879 29.32861328 34.5480957 C28 37 28 37 26 40 C25.34 40 24.68 40 24 40 C19.71 32.08 15.42 24.16 11 16 C11 24.25 11 32.5 11 41 C7.37 41 3.74 41 0 41 C0 40.34 0 39.68 0 39 C0.66 39 1.32 39 2 39 C2 26.79 2 14.58 2 2 C1.34 2 0.68 2 0 2 C0 1.34 0 0.68 0 0 Z " fill="#0B0B0B" transform="translate(30,311)"/>
<path d="M0 0 C4.29 0 8.58 0 13 0 C13.66 1.65 14.32 3.3 15 5 C16.51457831 6.90586023 16.51457831 6.90586023 18.3359375 8.59375 C18.98820313 9.23183594 19.64046875 9.86992187 20.3125 10.52734375 C21.3334375 11.50380859 21.3334375 11.50380859 22.375 12.5 C26.52465499 16.51451297 30.42216909 20.45564605 34 25 C34.66 25.33 35.32 25.66 36 26 C36 18.08 36 10.16 36 2 C35.34 2 34.68 2 34 2 C34 1.34 34 0.68 34 0 C37.96 0 41.92 0 46 0 C46 13.53 46 27.06 46 41 C42.04 41 38.08 41 34 41 C33.34 39.35 32.68 37.7 32 36 C30.07933309 33.66939211 30.07933309 33.66939211 27.75390625 31.4609375 C26.91666016 30.63335937 26.07941406 29.80578125 25.21679688 28.953125 C24.34087891 28.10234375 23.46496094 27.2515625 22.5625 26.375 C21.69044922 25.51648438 20.81839844 24.65796875 19.91992188 23.7734375 C18.30098957 22.18063708 16.67899561 20.59093831 15.05297852 19.00537109 C13.35661339 17.34834373 11.67227773 15.68126668 10 14 C10.13839953 18.12528499 10.2869741 22.25014108 10.4375 26.375 C10.47681641 27.550625 10.51613281 28.72625 10.55664062 29.9375 C10.61948242 31.61972656 10.61948242 31.61972656 10.68359375 33.3359375 C10.72025146 34.37282715 10.75690918 35.4097168 10.79467773 36.47802734 C10.84164223 38.99425166 10.84164223 38.99425166 12 41 C8.04 41 4.08 41 0 41 C0 27.47 0 13.94 0 0 Z " fill="#121212" transform="translate(524,311)"/>
<path d="M0 0 C0 3.3 0 6.6 0 10 C-0.66 9.67 -1.32 9.34 -2 9 C-4.0307477 8.84588894 -6.06606421 8.75017547 -8.1015625 8.68359375 C-9.31328125 8.64169922 -10.525 8.59980469 -11.7734375 8.55664062 C-13.04445313 8.51732422 -14.31546875 8.47800781 -15.625 8.4375 C-16.90375 8.39431641 -18.1825 8.35113281 -19.5 8.30664062 C-22.66655348 8.20030114 -25.83318753 8.09827167 -29 8 C-29 11.3 -29 14.6 -29 18 C-20.585 17.505 -20.585 17.505 -12 17 C-11.67 16.34 -11.34 15.68 -11 15 C-10.34 15 -9.68 15 -9 15 C-9 18.96 -9 22.92 -9 27 C-9.66 27 -10.32 27 -11 27 C-11.33 26.34 -11.66 25.68 -12 25 C-17.61 24.67 -23.22 24.34 -29 24 C-29 27.63 -29 31.26 -29 35 C-24.56224325 34.86138974 -20.12487223 34.71288136 -15.6875 34.5625 C-14.42486328 34.52318359 -13.16222656 34.48386719 -11.86132812 34.44335938 C-10.65283203 34.40146484 -9.44433594 34.35957031 -8.19921875 34.31640625 C-6.52605591 34.26141968 -6.52605591 34.26141968 -4.8190918 34.20532227 C-1.92126429 34.11068791 -1.92126429 34.11068791 1 33 C1 36.63 1 40.26 1 44 C0.34 44 -0.32 44 -1 44 C-1 43.34 -1 42.68 -1 42 C-13.54 42 -26.08 42 -39 42 C-38.67 29.13 -38.34 16.26 -38 3 C-38.66 3 -39.32 3 -40 3 C-40 2.34 -40 1.68 -40 1 C-34.62484606 0.85724976 -29.24968321 0.7148417 -23.87451172 0.57275391 C-22.04508213 0.52434598 -20.21565503 0.47584375 -18.38623047 0.42724609 C-15.76009761 0.35750056 -13.13395605 0.28809169 -10.5078125 0.21875 C-9.27649094 0.18593933 -9.27649094 0.18593933 -8.02029419 0.15246582 C-2.22774341 0 -2.22774341 0 0 0 Z " fill="#0C0C0C" transform="translate(460,310)"/>
<path d="M0 0 C-0.99 2.97 -1.98 5.94 -3 9 C-4.32 8.34 -5.64 7.68 -7 7 C-13.35976994 3.96120208 -20.13963318 4.18680997 -27 5 C-30.37402843 6.33906753 -32.22140031 7.83108646 -34 11 C-35.45186831 15.77263093 -35.43221357 19.6270863 -33.9375 24.375 C-31.58032852 27.56858717 -29.79728208 29.78514742 -26 31 C-19.22813116 31.5703472 -12.6753788 31.25163352 -6 30 C-6 27.69 -6 25.38 -6 23 C-9.96 23 -13.92 23 -18 23 C-18 23.99 -18 24.98 -18 26 C-18.66 26 -19.32 26 -20 26 C-20 22.7 -20 19.4 -20 16 C-19.34 16 -18.68 16 -18 16 C-18 16.66 -18 17.32 -18 18 C-11.07 18 -4.14 18 3 18 C2.67 18.66 2.34 19.32 2 20 C1.92907158 22.2072923 1.91584975 24.41667452 1.9375 26.625 C1.94652344 27.81351562 1.95554688 29.00203125 1.96484375 30.2265625 C1.97644531 31.14179688 1.98804688 32.05703125 2 33 C-4.37318953 37.69603439 -10.43561475 38.49435227 -18.125 38.5 C-18.9715918 38.50580078 -19.81818359 38.51160156 -20.69042969 38.51757812 C-27.0686527 38.39324629 -32.95439422 37.53408511 -38.0234375 33.31640625 C-38.46945313 32.73761719 -38.91546875 32.15882813 -39.375 31.5625 C-40.06722656 30.69818359 -40.06722656 30.69818359 -40.7734375 29.81640625 C-44.81651476 23.82904661 -44.93993401 18.1035721 -44 11 C-41.36656756 4.49607789 -37.31104913 0.80491072 -31 -2 C-21.17353701 -5.20334036 -9.55259545 -2.98852148 0 0 Z " fill="#0B0B0B" transform="translate(191,314)"/>
<path d="M0 0 C2.79244045 0.16928543 2.79244045 0.16928543 5 0 C4.32829194 3.8063457 3.27253436 7.35206816 2 11 C-1.07653838 9.97448721 -1.80796996 9.19203004 -4 7 C-7.56440418 5.81186527 -10.55474782 5.75812047 -14.3125 5.6875 C-15.60800781 5.65011719 -16.90351563 5.61273438 -18.23828125 5.57421875 C-22.56089114 6.06348612 -24.63872274 7.30392303 -28 10 C-30.36659115 13.0120251 -30.36527944 16.20468582 -30.24609375 19.9765625 C-29.69227248 24.53020406 -27.78535615 27.23478119 -24.5625 30.375 C-17.2616523 33.70521123 -8.75266677 32.19271796 -1 31 C-1 28.69 -1 26.38 -1 24 C-4.96 24 -8.92 24 -13 24 C-13 24.99 -13 25.98 -13 27 C-13.66 27 -14.32 27 -15 27 C-15 23.7 -15 20.4 -15 17 C-14.34 17 -13.68 17 -13 17 C-13 17.66 -13 18.32 -13 19 C-6.07 19 0.86 19 8 19 C7.01 19.495 7.01 19.495 6 20 C6.495 26.93 6.495 26.93 7 34 C-0.10382815 38.31801319 -5.57014346 39.19555008 -13.8125 39.25 C-14.58142578 39.270625 -15.35035156 39.29125 -16.14257812 39.3125 C-22.40953349 39.35480856 -28.09142857 38.42006619 -33.0234375 34.31640625 C-33.46945313 33.73761719 -33.91546875 33.15882813 -34.375 32.5625 C-35.06722656 31.69818359 -35.06722656 31.69818359 -35.7734375 30.81640625 C-40.03112804 24.51122758 -39.65654903 18.58117653 -38.3125 11.25 C-35.96545155 5.43826098 -33.22723081 2.27721891 -27.625 -0.375 C-18.58477502 -3.62785456 -9.02065324 -2.7520637 0 0 Z " fill="#0B0B0B" transform="translate(242,313)"/>
<path d="M0 0 C4.29 0 8.58 0 13 0 C13 0.66 13 1.32 13 2 C12.34 2 11.68 2 11 2 C11.46148437 2.92296875 11.92296875 3.8459375 12.3984375 4.796875 C12.7082959 5.4168335 13.0181543 6.03679199 13.33740234 6.67553711 C14.03746996 8.07517819 14.73833486 9.47442073 15.43994141 10.87329102 C17.54139568 15.06660179 19.62462736 19.26802946 21.6875 23.48046875 C22.35773193 24.84123535 22.35773193 24.84123535 23.04150391 26.22949219 C23.92357298 28.02076099 24.80093386 29.81435669 25.67333984 31.61035156 C26.07762207 32.42858398 26.4819043 33.24681641 26.8984375 34.08984375 C27.25599121 34.82066162 27.61354492 35.55147949 27.98193359 36.30444336 C28.89702181 38.17209739 28.89702181 38.17209739 31 39 C31 39.66 31 40.32 31 41 C26.38 41 21.76 41 17 41 C16.855625 39.88625 16.71125 38.7725 16.5625 37.625 C16.21627965 34.17857953 16.21627965 34.17857953 15 32 C8.73 32 2.46 32 -4 32 C-6.372678 36 -6.372678 36 -6 41 C-9.63 41 -13.26 41 -17 41 C-17 40.34 -17 39.68 -17 39 C-16.34 39 -15.68 39 -15 39 C-14.73268066 38.1447876 -14.46536133 37.2895752 -14.18994141 36.40844727 C-12.98482783 32.95654111 -11.54615006 29.75840378 -9.9609375 26.46484375 C-9.37463791 25.23129182 -8.78871142 23.99756251 -8.203125 22.76367188 C-7.28766273 20.84390811 -6.36930223 18.92570239 -5.44433594 17.01049805 C-4.54536632 15.14511225 -3.65861867 13.27430358 -2.7734375 11.40234375 C-2.24153809 10.29366943 -1.70963867 9.18499512 -1.16162109 8.04272461 C0.29721859 4.76429241 0.29721859 4.76429241 0 0 Z " fill="#0D0D0D" transform="translate(484,311)"/>
<path d="M0 0 C3.96 0 7.92 0 12 0 C11.98428955 1.33961792 11.98428955 1.33961792 11.96826172 2.70629883 C11.93416408 6.02175477 11.90909363 9.33702421 11.89013672 12.65258789 C11.880083 14.08718812 11.86643806 15.52176789 11.84912109 16.95629883 C11.82484451 19.01909438 11.81351081 21.08161885 11.8046875 23.14453125 C11.78897705 25.00621948 11.78897705 25.00621948 11.77294922 26.90551758 C11.7571193 30.16903309 11.7571193 30.16903309 14 33 C19.24286582 34.95057158 25.76831575 34.63762407 31.0625 33.125 C33.15529594 32.14684888 33.15529594 32.14684888 34 30 C34.15441209 27.89625004 34.24992639 25.78804881 34.31640625 23.6796875 C34.37924805 21.79443359 34.37924805 21.79443359 34.44335938 19.87109375 C34.48267578 18.55238281 34.52199219 17.23367188 34.5625 15.875 C34.60569512 14.53514249 34.64930973 13.19529844 34.69335938 11.85546875 C34.79970981 8.57042185 34.90173808 5.28529719 35 2 C34.34 2 33.68 2 33 2 C33 1.34 33 0.68 33 0 C36.96 0 40.92 0 45 0 C44.95566591 4.30575746 44.88564793 8.61012597 44.79248047 12.91503906 C44.7643689 14.37748705 44.74310569 15.8400842 44.72900391 17.30273438 C44.70743581 19.41353169 44.66072344 21.52255429 44.609375 23.6328125 C44.58842773 24.90012207 44.56748047 26.16743164 44.54589844 27.47314453 C43.73335323 32.72270988 41.30427587 35.79233716 37.46875 39.34375 C32.4659781 41.73246091 27.97316881 41.58303164 22.5 41.5 C21.48035156 41.51546875 20.46070312 41.5309375 19.41015625 41.546875 C13.48395484 41.51604951 9.543077 41.19803318 5 37 C1.96938933 32.92104497 1.64279753 29.98085987 1.70703125 24.94921875 C1.71127609 24.29041214 1.71552094 23.63160553 1.71989441 22.95283508 C1.73658804 20.86396115 1.77421942 18.77607861 1.8125 16.6875 C1.82755903 15.26498797 1.84124531 13.8424607 1.85351562 12.41992188 C1.88645997 8.94629649 1.93817592 5.47324513 2 2 C1.34 2 0.68 2 0 2 C0 1.34 0 0.68 0 0 Z " fill="#101010" transform="translate(93,311)"/>
<path d="M0 0 C14.19642857 -0.53571429 14.19642857 -0.53571429 17.75 1.875 C21.98849252 5.87802071 21.98849252 5.87802071 22.3125 9.3125 C21.98354921 13.19411929 21.35208803 14.95099699 19 18 C15.20548348 20.52967768 12.18802503 20.22360092 7.8125 20.125 C3.9453125 20.063125 3.9453125 20.063125 0 20 C0 13.4 0 6.8 0 0 Z " fill="#1F1F1F" transform="translate(429,367)"/>
<path d="M0 0 C4.58797468 2.8153481 4.58797468 2.8153481 5.75 4.6875 C6.14916548 7.78103244 6.38472337 9.72738099 5.75 12.6875 C2.97991227 16.11366114 0.77814885 18.45888419 -3.67578125 18.9609375 C-11.52676809 19.23715625 -11.52676809 19.23715625 -15.375 16.3125 C-18.11336878 12.47878371 -18.71491949 10.42967877 -18.25 5.6875 C-13.7375362 -1.40351454 -7.94086864 -3.20688926 0 0 Z " fill="#171717" transform="translate(295.25,368.3125)"/>
<path d="M0 0 C2.536875 -0.103125 5.07375 -0.20625 7.6875 -0.3125 C8.47729248 -0.35802002 9.26708496 -0.40354004 10.08081055 -0.45043945 C14.13846356 -0.52996104 15.62826767 -0.28269173 18.984375 2.26953125 C21.45123033 5.61125969 21.68221135 7.08099072 21.43359375 11.06640625 C20.75194607 14.10618646 19.19767713 15.86696044 17 18 C13.81453711 19.59273144 10.36800652 19.10141833 6.875 19.0625 C4.27625 19.041875 1.6775 19.02125 -1 19 C-0.67 12.73 -0.34 6.46 0 0 Z " fill="#0F0F0F" transform="translate(484,368)"/>
<path d="M0 0 C2.743125 -0.04125 5.48625 -0.0825 8.3125 -0.125 C9.60281128 -0.15231201 9.60281128 -0.15231201 10.91918945 -0.18017578 C11.60198975 -0.1851709 12.28479004 -0.19016602 12.98828125 -0.1953125 C13.68477783 -0.20578613 14.38127441 -0.21625977 15.09887695 -0.22705078 C17 0 17 0 20 2 C20.3125 5 20.3125 5 20 8 C19.34 8.66 18.68 9.32 18 10 C17.01 10 16.02 10 15 10 C17.475 14.455 17.475 14.455 20 19 C18.35 19 16.7 19 15 19 C13.59375 17.50390625 13.59375 17.50390625 12.5 15.5625 C10.58135453 12.46610672 10.58135453 12.46610672 7.1875 11.0625 C6.1046875 11.0315625 6.1046875 11.0315625 5 11 C5 13.64 5 16.28 5 19 C3.35 19 1.7 19 0 19 C0 12.73 0 6.46 0 0 Z " fill="#1A1A1A" transform="translate(196,368)"/>
<path d="M0 0 C2.31 0 4.62 0 7 0 C7.268125 0.886875 7.53625 1.77375 7.8125 2.6875 C8.92032723 5.77775491 10.27525337 8.22622939 12 11 C12.37511719 10.278125 12.75023437 9.55625 13.13671875 8.8125 C13.64847656 7.884375 14.16023438 6.95625 14.6875 6 C15.18636719 5.071875 15.68523437 4.14375 16.19921875 3.1875 C17.09060547 2.1046875 17.09060547 2.1046875 18 1 C19.65 1 21.3 1 23 1 C23 7.27 23 13.54 23 20 C21.68 20 20.36 20 19 20 C18.67 16.37 18.34 12.74 18 9 C16.35 11.97 14.7 14.94 13 18 C12.01 18 11.02 18 10 18 C8.35 15.03 6.7 12.06 5 9 C4.67 12.63 4.34 16.26 4 20 C2.68 20 1.36 20 0 20 C0 13.4 0 6.8 0 0 Z " fill="#141414" transform="translate(341,367)"/>
<path d="M0 0 C1.98 0 3.96 0 6 0 C7.65 3.3 9.3 6.6 11 10 C13.48724903 6.68366796 15.23109915 3.70626844 17 0 C18.98 0 20.96 0 23 0 C23 6.27 23 12.54 23 19 C21.68 19 20.36 19 19 19 C18.67 15.04 18.34 11.08 18 7 C16.02 10.96 14.04 14.92 12 19 C8.49381423 15.49381423 7.11585492 12.45059138 5 8 C4.67 11.63 4.34 15.26 4 19 C2.68 19 1.36 19 0 19 C0 12.73 0 6.46 0 0 Z " fill="#0E0E0E" transform="translate(309,368)"/>
<path d="M0 0 C1.65 0 3.3 0 5 0 C5 6.6 5 13.2 5 20 C-1 20 -1 20 -3.484375 17.62890625 C-4.23203125 16.61699219 -4.9796875 15.60507812 -5.75 14.5625 C-8.38394859 10.70547105 -8.38394859 10.70547105 -12 8 C-12 11.96 -12 15.92 -12 20 C-13.32 20 -14.64 20 -16 20 C-16 13.73 -16 7.46 -16 1 C-11 1 -11 1 -8.8671875 2.64453125 C-7.88105469 3.71767578 -7.88105469 3.71767578 -6.875 4.8125 C-5.88113281 5.87404297 -5.88113281 5.87404297 -4.8671875 6.95703125 C-4.25101562 7.63121094 -3.63484375 8.30539062 -3 9 C-2.01 9.99 -1.02 10.98 0 12 C0 8.04 0 4.08 0 0 Z " fill="#1E1E1E" transform="translate(416,367)"/>
<path d="M0 0 C3.43796837 -0.08078777 6.87404727 -0.14039791 10.3125 -0.1875 C11.28896484 -0.21263672 12.26542969 -0.23777344 13.27148438 -0.26367188 C14.20927734 -0.27333984 15.14707031 -0.28300781 16.11328125 -0.29296875 C16.97735596 -0.3086792 17.84143066 -0.32438965 18.73168945 -0.34057617 C21.49183178 0.07384623 22.34601456 0.78996448 24 3 C24.5 5.5 24.5 5.5 24 8 C19.49423224 11.86339761 14.79124052 11.35047232 9.1875 11.1875 C7.86202148 11.16719727 7.86202148 11.16719727 6.50976562 11.14648438 C4.33957977 11.11129217 2.16970967 11.05748985 0 11 C0 7.37 0 3.74 0 0 Z " fill="#F0F0F0" transform="translate(375,334)"/>
<path d="M0 0 C6.27 0 12.54 0 19 0 C19 1.32 19 2.64 19 4 C14.38 4 9.76 4 5 4 C5 5.32 5 6.64 5 8 C7.97 8 10.94 8 14 8 C14 9.32 14 10.64 14 12 C11.03 12 8.06 12 5 12 C5 13.65 5 15.3 5 17 C9.62 16.67 14.24 16.34 19 16 C19 17.65 19 19.3 19 21 C12.73 20.67 6.46 20.34 0 20 C0 13.4 0 6.8 0 0 Z " fill="#272727" transform="translate(373,367)"/>
<path d="M0 0 C6.27 0 12.54 0 19 0 C19 1.32 19 2.64 19 4 C14.38 4 9.76 4 5 4 C5 5.32 5 6.64 5 8 C7.97 8 10.94 8 14 8 C14 9.32 14 10.64 14 12 C10.7 12 7.4 12 4 12 C4 13.65 4 15.3 4 17 C8.95 16.67 13.9 16.34 19 16 C19 17.65 19 19.3 19 21 C12.73 20.67 6.46 20.34 0 20 C0 13.4 0 6.8 0 0 Z " fill="#202020" transform="translate(224,367)"/>
<path d="M0 0 C3.0625 1 3.0625 1 5 2 C4.34 3.32 3.68 4.64 3 6 C2.505 5.835 2.01 5.67 1.5 5.5 C-2.03444089 4.79311182 -5.39690701 4.93994845 -9 5 C-9 5.66 -9 6.32 -9 7 C-8.15695313 7.12117188 -7.31390625 7.24234375 -6.4453125 7.3671875 C-4.80175781 7.61855469 -4.80175781 7.61855469 -3.125 7.875 C-2.03445312 8.03742188 -0.94390625 8.19984375 0.1796875 8.3671875 C3 9 3 9 5 11 C5.375 13.9375 5.375 13.9375 5 17 C2.71033356 19.33317554 1.35921792 19.95949758 -1.91015625 20.328125 C-2.95042969 20.30234375 -3.99070313 20.2765625 -5.0625 20.25 C-6.10535156 20.23453125 -7.14820313 20.2190625 -8.22265625 20.203125 C-11 20 -11 20 -14 19 C-13.67 17.68 -13.34 16.36 -13 15 C-12.44828125 15.16371094 -11.8965625 15.32742188 -11.328125 15.49609375 C-8.73385993 16.05760414 -6.40164589 16.09739008 -3.75 16.0625 C-2.41195312 16.04896484 -2.41195312 16.04896484 -1.046875 16.03515625 C-0.37140625 16.02355469 0.3040625 16.01195312 1 16 C1 15.01 1 14.02 1 13 C-0.24716797 12.94392578 -0.24716797 12.94392578 -1.51953125 12.88671875 C-2.60621094 12.82097656 -3.69289062 12.75523437 -4.8125 12.6875 C-5.89144531 12.62949219 -6.97039062 12.57148438 -8.08203125 12.51171875 C-11.19879148 11.96513831 -12.19316987 11.54066216 -14 9 C-14.5 6.5625 -14.5 6.5625 -14 4 C-10.04098212 -0.7252794 -5.73982219 -0.72655977 0 0 Z " fill="#0F0F0F" transform="translate(158,367)"/>
<path d="M0 0 C2.98858378 1.69353081 3.11297873 3.35082869 4.1875 6.6875 C4.455625 7.780625 4.72375 8.87375 5 10 C2.15695013 12.84304987 -0.00266064 14.32780773 -4 14.5625 C-7.36083641 14.38427383 -8.10293618 13.92494237 -11 11.8125 C-13 9 -13 9 -13.625 6.4375 C-13 4 -13 4 -11 1.6875 C-6.89398994 -0.62213066 -4.67398355 -0.52770782 0 0 Z " fill="#F1F1F1" transform="translate(304,332)"/>
<path d="M0 0 C3.10439786 -0.0538854 6.20786307 -0.09361739 9.3125 -0.125 C10.19357422 -0.14175781 11.07464844 -0.15851563 11.98242188 -0.17578125 C12.82998047 -0.18222656 13.67753906 -0.18867188 14.55078125 -0.1953125 C15.72120972 -0.21102295 15.72120972 -0.21102295 16.9152832 -0.22705078 C19 0 19 0 22 2 C22.375 4.5 22.375 4.5 22 7 C18.84685215 9.10209857 18.13896919 9.2434761 14.55078125 9.1953125 C13.27944336 9.18564453 13.27944336 9.18564453 11.98242188 9.17578125 C11.10134766 9.15902344 10.22027344 9.14226562 9.3125 9.125 C8.41982422 9.11597656 7.52714844 9.10695313 6.60742188 9.09765625 C4.40483334 9.07409915 2.20238275 9.03822844 0 9 C0 6.03 0 3.06 0 0 Z " fill="#F7F7F7" transform="translate(376,318)"/>
<path d="M0 0 C1.2375 0.495 1.2375 0.495 2.5 1 C1.84 2.32 1.18 3.64 0.5 5 C0.005 4.835 -0.49 4.67 -1 4.5 C-4.59809533 3.78038093 -7.82539233 3.8221964 -11.5 4 C-13.79827312 5.87938172 -13.79827312 5.87938172 -13.8125 8.9375 C-13.71648621 11.91095098 -13.71648621 11.91095098 -12.4375 13.875 C-9.40946518 15.63321377 -6.93351057 15.29599229 -3.5 15 C-0.66621868 14.1025173 -0.66621868 14.1025173 1.5 13 C1.83 14.32 2.16 15.64 2.5 17 C-2.85414871 19.41518665 -7.69790574 19.81768645 -13.5 19 C-16.6875 17.0625 -16.6875 17.0625 -18.5 14 C-19.17949487 10.84234737 -19.23078885 8.15152692 -18.5 5 C-13.29152156 -1.57913066 -7.79121464 -2.22606133 0 0 Z " fill="#151515" transform="translate(267.5,368)"/>
<path d="M0 0 C0.33 1.32 0.66 2.64 1 4 C-3.62 4 -8.24 4 -13 4 C-13 5.65 -13 7.3 -13 9 C-10.03 9 -7.06 9 -4 9 C-4 9.66 -4 10.32 -4 11 C-6.97 11 -9.94 11 -13 11 C-13 12.98 -13 14.96 -13 17 C-8.38 17 -3.76 17 1 17 C1 17.99 1 18.98 1 20 C-4.94 20 -10.88 20 -17 20 C-17 13.73 -17 7.46 -17 1 C-8.585 0.505 -8.585 0.505 0 0 Z " fill="#090909" transform="translate(475,367)"/>
<path d="M0 0 C2.5 1.125 2.5 1.125 4 3 C4.5625 5.9375 4.5625 5.9375 4 9 C1.44273427 11.85812053 -0.23027959 12.85567742 -4 13.5625 C-8.07822506 12.7978328 -9.57023992 11.31330919 -12 8 C-12 5.11662149 -11.37826661 3.64527834 -9.9375 1.1875 C-6.79171764 -0.74056016 -3.53282716 -0.5117979 0 0 Z " fill="#F2F2F2" transform="translate(293,371)"/>
<path d="M0 0 C1.588125 -0.061875 3.17625 -0.12375 4.8125 -0.1875 C6.15248047 -0.23970703 6.15248047 -0.23970703 7.51953125 -0.29296875 C10 0 10 0 11.796875 1.328125 C13.68975612 3.95849227 13.44911305 5.85620866 13 9 C11.5625 11.375 11.5625 11.375 9 13 C5.91795759 13.32889265 3.11605929 13.18329761 0 13 C0 8.71 0 4.42 0 0 Z " fill="#F3F3F3" transform="translate(488,371)"/>
<path d="M0 0 C1.60875 -0.04125 3.2175 -0.0825 4.875 -0.125 C5.77992188 -0.14820313 6.68484375 -0.17140625 7.6171875 -0.1953125 C10 0 10 0 12 2 C12.30078125 4.09375 12.30078125 4.09375 12.3125 6.5 C12.33763672 7.69109375 12.33763672 7.69109375 12.36328125 8.90625 C12.24339844 9.5971875 12.12351562 10.288125 12 11 C7.7975546 13.80163026 4.99895065 13.14489712 0 13 C0 8.71 0 4.42 0 0 Z " fill="#F7F7F7" transform="translate(434,371)"/>
<path d="M0 0 C6.6 0 13.2 0 20 0 C20 1.65 20 3.3 20 5 C17.36 4.67 14.72 4.34 12 4 C12 9.28 12 14.56 12 20 C10.68 20 9.36 20 8 20 C8 14.72 8 9.44 8 4 C5.36 4.33 2.72 4.66 0 5 C0 3.35 0 1.7 0 0 Z " fill="#191919" transform="translate(107,367)"/>
<path d="M0 0 C2.60880189 0.07589242 3.83497043 0.18149813 6.125 1.5 C7.0625 3.3125 7.0625 3.3125 6.875 5.875 C6.0625 8.3125 6.0625 8.3125 4.0625 10.3125 C2.1875 10.578125 2.1875 10.578125 0.0625 10.5625 C-0.63875 10.56765625 -1.34 10.5728125 -2.0625 10.578125 C-3.9375 10.3125 -3.9375 10.3125 -5.9375 8.3125 C-6.1875 5.3125 -6.1875 5.3125 -5.9375 2.3125 C-3.9375 0.3125 -3.9375 0.3125 0 0 Z " fill="#EEEEEE" transform="translate(300.9375,316.6875)"/>
<path d="M0 0 C3.80999969 2.53999979 4.46118745 4.74994628 6 9 C6 10.32 6 11.64 6 13 C2.04 13 -1.92 13 -6 13 C-4.58707905 8.1725201 -2.57025846 4.2837641 0 0 Z " fill="#EDEDED" transform="translate(489,323)"/>
<path d="M0 0 C1.32 0 2.64 0 4 0 C4.33 6.27 4.66 12.54 5 19 C3.35 19 1.7 19 0 19 C0 12.73 0 6.46 0 0 Z " fill="#0B0B0B" transform="translate(96,368)"/>
<path d="M0 0 C0.69040574 1.65697379 1.3530635 3.3255761 2 5 C2.97236487 6.6829392 3.96564444 8.35443434 5 10 C2.8125 10.4375 2.8125 10.4375 0 10 C-1.41812063 8.29825525 -2.54357458 6.49388732 -3.73046875 4.625 C-4.97814371 2.71931573 -4.97814371 2.71931573 -7.8125 2.0625 C-8.534375 2.041875 -9.25625 2.02125 -10 2 C-3.24137931 -1.62068966 -3.24137931 -1.62068966 0 0 Z " fill="#0C0C0C" transform="translate(211,377)"/>
<path d="M0 0 C0.66 0 1.32 0 2 0 C2 1.98 2 3.96 2 6 C0.02 6.33 -1.96 6.66 -4 7 C-3.67 7.33 -3.34 7.66 -3 8 C-2.95919217 9.99958364 -2.95745644 12.00045254 -3 14 C-3.66 13.67 -4.32 13.34 -5 13 C-4.67 11.68 -4.34 10.36 -4 9 C-6.97 9 -9.94 9 -13 9 C-13 7.68 -13 6.36 -13 5 C-8.38 5 -3.76 5 1 5 C0.67 3.35 0.34 1.7 0 0 Z " fill="#E9E9E9" transform="translate(391,366)"/>
<path d="M0 0 C0.66 0 1.32 0 2 0 C2 1.98 2 3.96 2 6 C0.02 6.33 -1.96 6.66 -4 7 C-3.67 7.33 -3.34 7.66 -3 8 C-2.95919217 9.99958364 -2.95745644 12.00045254 -3 14 C-3.66 13.67 -4.32 13.34 -5 13 C-4.67 11.68 -4.34 10.36 -4 9 C-6.97 9 -9.94 9 -13 9 C-13 7.68 -13 6.36 -13 5 C-8.38 5 -3.76 5 1 5 C0.67 3.35 0.34 1.7 0 0 Z " fill="#EAEAEA" transform="translate(242,366)"/>
<path d="M0 0 C3.3 0 6.6 0 10 0 C10.33 1.32 10.66 2.64 11 4 C10 5 10 5 7.71484375 5.09765625 C6.34005859 5.08025391 6.34005859 5.08025391 4.9375 5.0625 C4.01839844 5.05347656 3.09929687 5.04445313 2.15234375 5.03515625 C1.44207031 5.02355469 0.73179687 5.01195312 0 5 C0 3.35 0 1.7 0 0 Z " fill="#EFEFEF" transform="translate(201,371)"/>
<path d="M0 0 C9.41002278 -0.3690205 9.41002278 -0.3690205 14 2 C13.34 3.32 12.68 4.64 12 6 C6.06 5.01 6.06 5.01 0 4 C0 2.68 0 1.36 0 0 Z " fill="#292929" transform="translate(149,367)"/>
<path d="M0 0 C5.21979128 -0.1799928 9.07262981 0.02905192 14 2 C13.34 3.32 12.68 4.64 12 6 C8.37 5.34 4.74 4.68 1 4 C0.67 2.68 0.34 1.36 0 0 Z " fill="#292929" transform="translate(256,367)"/>
<path d="M0 0 C0 1.65 0 3.3 0 5 C-6.27 4.67 -12.54 4.34 -19 4 C-19 3.67 -19 3.34 -19 3 C-17.35 2.67 -15.7 2.34 -14 2 C-14 1.67 -14 1.34 -14 1 C-11.85420251 0.83287252 -9.70836101 0.66631 -7.5625 0.5 C-5.77005859 0.36078125 -5.77005859 0.36078125 -3.94140625 0.21875 C-1 0 -1 0 0 0 Z " fill="#0B0B0B" transform="translate(392,383)"/>
<path d="M0 0 C4.51617599 -0.07654536 8.59085217 -0.10228696 13 1 C13 1.66 13 2.32 13 3 C12.34 3 11.68 3 11 3 C11 3.66 11 4.32 11 5 C7.37 4.67 3.74 4.34 0 4 C0 2.68 0 1.36 0 0 Z " fill="#E3E3E3" transform="translate(149,371)"/>
<path d="M0 0 C0.55171875 0.16371094 1.1034375 0.32742188 1.671875 0.49609375 C4.26614007 1.05760414 6.59835411 1.09739008 9.25 1.0625 C10.58804688 1.04896484 10.58804688 1.04896484 11.953125 1.03515625 C12.62859375 1.02355469 13.3040625 1.01195312 14 1 C14 2.33333333 14 3.66666667 14 5 C12.06257659 5.02703381 10.12504521 5.04641125 8.1875 5.0625 C7.10855469 5.07410156 6.02960938 5.08570313 4.91796875 5.09765625 C2 5 2 5 -1 4 C-0.67 2.68 -0.34 1.36 0 0 Z " fill="#191919" transform="translate(145,382)"/>
<path d="M0 0 C0.33 0 0.66 0 1 0 C1 1.65 1 3.3 1 5 C0.195625 5.12375 -0.60875 5.2475 -1.4375 5.375 C-2.7059375 5.684375 -2.7059375 5.684375 -4 6 C-4.33 6.66 -4.66 7.32 -5 8 C-7.97 8 -10.94 8 -14 8 C-14 6.68 -14 5.36 -14 4 C-9.38 4 -4.76 4 0 4 C0 2.68 0 1.36 0 0 Z " fill="#EBEBEB" transform="translate(476,367)"/>
<path d="M0 0 C1.32 0.33 2.64 0.66 4 1 C4.33663062 4.70293685 4.47736015 6.39534381 2.125 9.375 C0 11 0 11 -2 11 C-2 9 -2 9 0 6.875 C0.66 6.25625 1.32 5.6375 2 5 C1.01 4.67 0.02 4.34 -1 4 C-0.67 2.68 -0.34 1.36 0 0 Z " fill="#252525" transform="translate(133,367)"/>
<path d="M0 0 C0.33 0 0.66 0 1 0 C1 8.58 1 17.16 1 26 C0.67 26 0.34 26 0 26 C-0.33 19.4 -0.66 12.8 -1 6 C-1.99 6.495 -1.99 6.495 -3 7 C-1.125 1.125 -1.125 1.125 0 0 Z " fill="#B9B9B9" transform="translate(70,324)"/>
<path d="M0 0 C0.33 0 0.66 0 1 0 C1 3.63 1 7.26 1 11 C0.67 11 0.34 11 0 11 C-0.33 9.35 -0.66 7.7 -1 6 C-1.99 6.495 -1.99 6.495 -3 7 C-1.125 1.125 -1.125 1.125 0 0 Z " fill="#DFDFDF" transform="translate(359,375)"/>
</svg>
