<?xml version="1.0" encoding="UTF-8"?>
<svg version="1.1" xmlns="http://www.w3.org/2000/svg" width="600" height="600">
<path d="M0 0 C198 0 396 0 600 0 C600 198 600 396 600 600 C402 600 204 600 0 600 C0 402 0 204 0 0 Z " fill="#FEFEFE" transform="translate(0,0)"/>
<path d="M0 0 C0.82014587 -0.0087616 1.64029175 -0.01752319 2.48529053 -0.02655029 C5.18938516 -0.04851001 7.89183676 -0.03400312 10.59594727 -0.01708984 C12.4801515 -0.02045931 14.36435361 -0.02531301 16.24855042 -0.03158569 C20.19537065 -0.03895263 24.14162458 -0.02825855 28.08837891 -0.00488281 C33.14046354 0.02358536 38.19121894 0.00721242 43.24325466 -0.02274513 C47.1338751 -0.04083971 51.02418205 -0.03504986 54.91481209 -0.02210617 C56.77709168 -0.01877711 58.63939999 -0.02284164 60.50164604 -0.03450394 C63.10863125 -0.04724631 65.71348548 -0.02778929 68.3203125 0 C69.08569839 -0.01012115 69.85108429 -0.02024231 70.6396637 -0.03067017 C74.35805702 0.04252758 77.17429718 0.54695251 80.20359802 2.66921997 C83.37958792 6.42025293 83.56306809 9.23049986 83.46948242 13.93798828 C83.47678375 14.75974045 83.48408508 15.58149261 83.49160767 16.42814636 C83.50778534 19.13735318 83.48063524 21.84415417 83.45141602 24.55322266 C83.45037835 26.43981932 83.45141553 28.32641817 83.45443726 30.2130127 C83.45425796 34.16414741 83.43343352 38.11446463 83.3972168 42.06542969 C83.3518409 47.12647038 83.35075512 52.18631706 83.36425209 57.24750519 C83.37093963 61.14238064 83.35765692 65.03698455 83.33799362 68.93180847 C83.33030295 70.7976896 83.32798768 72.66360097 83.33116531 74.52949524 C83.33190831 77.13889969 83.30662573 79.74678169 83.27416992 82.35595703 C83.27912476 83.1249382 83.28407959 83.89391937 83.28918457 84.686203 C83.21680875 88.33752952 82.82986166 90.47891659 80.87802124 93.60266113 C77.00924616 97.27584525 72.87656566 96.80611148 67.84448242 96.82397461 C67.04252945 96.83054581 66.24057648 96.837117 65.4143219 96.84388733 C62.76001898 96.86360107 60.10577254 96.87527743 57.45141602 96.88525391 C56.09134996 96.8913672 56.09134996 96.8913672 54.70380783 96.89760399 C49.9064634 96.91845458 45.10914751 96.93276177 40.31176758 96.94213867 C35.35619043 96.9532127 30.40106113 96.98762683 25.44564247 97.02731037 C21.63493002 97.05344516 17.82432492 97.06182761 14.01353073 97.06542015 C12.18667952 97.07029272 10.35983332 97.08192576 8.53306961 97.10045815 C5.97635517 97.1247876 3.42080826 97.12389643 0.86401367 97.11694336 C0.11059189 97.12975342 -0.6428299 97.14256348 -1.41908264 97.15576172 C-5.08830107 97.11941142 -7.10900794 96.75436185 -10.22134399 94.74259949 C-13.8744728 91.01507711 -13.44089888 87.66050595 -13.46801758 82.6965332 C-13.47619507 81.87521912 -13.48437256 81.05390503 -13.49279785 80.20770264 C-13.51766032 77.48303969 -13.53416974 74.75842885 -13.54858398 72.03369141 C-13.55390766 71.10399851 -13.55923134 70.17430561 -13.56471634 69.2164402 C-13.59145124 64.29591318 -13.61082531 59.37541156 -13.62524414 54.45483398 C-13.64189571 49.37021731 -13.68667665 44.28624833 -13.73761559 39.20187664 C-13.77125667 35.29422758 -13.7828181 31.38673286 -13.78847122 27.47895241 C-13.79519207 25.60463319 -13.81043577 23.73032441 -13.83436203 21.85614586 C-13.86595075 19.23209077 -13.86606025 16.60979069 -13.85864258 13.9855957 C-13.87504791 13.2119014 -13.89145325 12.43820709 -13.90835571 11.6410675 C-13.86476703 7.8725461 -13.3838868 5.8074886 -11.25587463 2.66624451 C-7.47237954 0.10314423 -4.42004135 -0.05829467 0 0 Z " fill="#19549E" transform="translate(43.275146484375,247.35302734375)"/>
<path d="M0 0 C0.81053833 -0.0087616 1.62107666 -0.01752319 2.45617676 -0.02655029 C5.12237865 -0.04846903 7.7869077 -0.03401923 10.453125 -0.01708984 C12.31347978 -0.02046016 14.17383242 -0.02531458 16.03417969 -0.03158569 C19.92794821 -0.0389468 23.82114216 -0.02827622 27.71484375 -0.00488281 C32.69852433 0.02360466 37.68085854 0.00719658 42.66448975 -0.02274513 C46.50449717 -0.04083881 50.34418695 -0.03505062 54.1842041 -0.02210617 C56.02136394 -0.01877787 57.85855289 -0.02283894 59.69567871 -0.03450394 C62.26664275 -0.04724713 64.83544634 -0.02778936 67.40625 0 C68.53794617 -0.01518173 68.53794617 -0.01518173 69.69250488 -0.03067017 C73.38596717 0.04305164 76.16852679 0.56265463 79.17514038 2.66921997 C82.35908585 6.41963921 82.5414147 9.22672088 82.44775391 13.93798828 C82.45505524 14.75974045 82.46235657 15.58149261 82.46987915 16.42814636 C82.48605682 19.13735318 82.45890672 21.84415417 82.4296875 24.55322266 C82.42864984 26.43981932 82.42968702 28.32641817 82.43270874 30.2130127 C82.43252945 34.16414741 82.411705 38.11446463 82.37548828 42.06542969 C82.33011238 47.12647038 82.3290266 52.18631706 82.34252357 57.24750519 C82.34921111 61.14238064 82.33592841 65.03698455 82.31626511 68.93180847 C82.30857443 70.7976896 82.30625917 72.66360097 82.3094368 74.52949524 C82.31017979 77.13889969 82.28489722 79.74678169 82.25244141 82.35595703 C82.25739624 83.1249382 82.26235107 83.89391937 82.26745605 84.686203 C82.19508024 88.33752952 81.80813315 90.47891659 79.85629272 93.60266113 C75.98751764 97.27584525 71.85483714 96.80611148 66.82275391 96.82397461 C66.02080093 96.83054581 65.21884796 96.837117 64.39259338 96.84388733 C61.73829047 96.86360107 59.08404403 96.87527743 56.4296875 96.88525391 C55.06962145 96.8913672 55.06962145 96.8913672 53.68207932 96.89760399 C48.88473488 96.91845458 44.08741899 96.93276177 39.29003906 96.94213867 C34.33446192 96.9532127 29.37933261 96.98762683 24.42391396 97.02731037 C20.61320151 97.05344516 16.80259641 97.06182761 12.99180222 97.06542015 C11.16495101 97.07029272 9.3381048 97.08192576 7.51134109 97.10045815 C4.95462665 97.1247876 2.39907974 97.12389643 -0.15771484 97.11694336 C-0.91113663 97.12975342 -1.66455841 97.14256348 -2.44081116 97.15576172 C-6.06794991 97.1198283 -8.1400612 96.74500788 -11.24307251 94.80509949 C-14.93877495 90.92167125 -14.46714565 86.73385426 -14.50561523 81.67480469 C-14.51539902 80.86309814 -14.5251828 80.0513916 -14.53526306 79.21508789 C-14.56518382 76.52833696 -14.58659045 73.84163556 -14.60546875 71.15478516 C-14.61204058 70.23704189 -14.6186124 69.31929863 -14.62538338 68.37374496 C-14.65795876 63.51805919 -14.68241684 58.66239524 -14.7019043 53.80664062 C-14.71973522 49.78678573 -14.75458617 45.76762997 -14.80444336 41.74804688 C-14.864573 36.89454363 -14.89536936 32.04168987 -14.90507698 27.18783188 C-14.91364306 25.33860592 -14.93248959 23.48939785 -14.9618206 21.64038467 C-15.00067539 19.05212706 -15.00177883 16.46640899 -14.99389648 13.87792969 C-15.01389709 13.11515717 -15.03389771 12.35238464 -15.05450439 11.5664978 C-14.99899377 7.50433107 -14.42565433 5.79865116 -11.77186584 2.67297363 C-8.09905389 0.09801859 -4.37031184 -0.05862784 0 0 Z " fill="#E12127" transform="translate(368.296875,247.35302734375)"/>
<path d="M0 0 C0.87826447 -0.01283524 1.75652893 -0.02567047 2.66140747 -0.03889465 C3.61860687 -0.04628159 4.57580627 -0.05366852 5.56201172 -0.0612793 C7.03321976 -0.07338692 7.03321976 -0.07338692 8.53414917 -0.08573914 C10.61731183 -0.09960235 12.70049741 -0.11031444 14.78369141 -0.11816406 C17.95763959 -0.13531401 21.13052934 -0.17917269 24.30419922 -0.22338867 C26.32762905 -0.23352075 28.35106776 -0.24203524 30.37451172 -0.2487793 C31.31956573 -0.26628738 32.26461975 -0.28379547 33.23831177 -0.30183411 C40.23975408 -0.2790034 44.50519508 1.12914728 49.79248047 5.9230957 C50.25009766 6.48125977 50.70771484 7.03942383 51.17919922 7.61450195 C51.64970703 8.17008789 52.12021484 8.72567383 52.60498047 9.2980957 C57.08261651 15.9660305 56.47591155 23.48668523 55.86669922 31.17700195 C54.49150572 38.08065788 51.11011176 42.95520705 45.82006836 47.52099609 C39.83179477 50.87872609 32.95716165 49.98838909 26.30419922 49.67700195 C24.80364377 49.63680127 23.30298406 49.60031209 21.80224609 49.56762695 C18.15486881 49.48019626 14.51146352 49.34257175 10.86669922 49.17700195 C10.87830078 50.46477539 10.88990234 51.75254883 10.90185547 53.0793457 C10.91123192 54.75772968 10.92033227 56.43611521 10.92919922 58.11450195 C10.93757813 58.96463867 10.94595703 59.81477539 10.95458984 60.69067383 C10.95942383 61.90400391 10.95942383 61.90400391 10.96435547 63.1418457 C10.97221069 64.26514282 10.97221069 64.26514282 10.98022461 65.41113281 C10.86669922 67.17700195 10.86669922 67.17700195 9.86669922 68.17700195 C7.53509867 68.27609498 5.2003998 68.30670699 2.86669922 68.30200195 C1.58794922 68.30458008 0.30919922 68.3071582 -1.00830078 68.30981445 C-4.13330078 68.17700195 -4.13330078 68.17700195 -5.13330078 67.17700195 C-5.23269704 65.12687349 -5.26129631 63.07328804 -5.26269531 61.02075195 C-5.26584747 59.70268555 -5.26899963 58.38461914 -5.27224731 57.02661133 C-5.27045754 55.5767412 -5.26840658 54.12687137 -5.26611328 52.67700195 C-5.26678636 51.20109033 -5.26775641 49.72517882 -5.26901245 48.24926758 C-5.27048926 45.15225166 -5.26833542 42.05526453 -5.26367188 38.95825195 C-5.25797459 34.97991647 -5.26125368 31.00164844 -5.26724434 27.02331543 C-5.27085042 23.97452278 -5.26971115 20.92574624 -5.26711655 17.87695312 C-5.26644741 16.40966789 -5.26727525 14.94238121 -5.2695961 13.47509766 C-5.27212335 11.42781602 -5.26759138 9.38052929 -5.26269531 7.33325195 C-5.26189972 6.16600586 -5.26110413 4.99875977 -5.26028442 3.79614258 C-5.05776529 -0.38097878 -3.78006288 0.04794793 0 0 Z " fill="#FAFAFB" transform="translate(55.13330078125,261.822998046875)"/>
<path d="M0 0 C0.85824371 -0.00960754 1.71648743 -0.01921509 2.60073853 -0.02911377 C4.00372696 -0.03548859 4.00372696 -0.03548859 5.43505859 -0.04199219 C6.87297256 -0.0505423 6.87297256 -0.0505423 8.3399353 -0.05926514 C10.37602631 -0.06873465 12.41213279 -0.07525682 14.44824219 -0.07910156 C17.54959389 -0.08876159 20.65027017 -0.11974755 23.75146484 -0.15136719 C25.72932549 -0.15790159 27.70719088 -0.16315034 29.68505859 -0.16699219 C31.06982895 -0.18551239 31.06982895 -0.18551239 32.48257446 -0.20440674 C38.99671113 -0.18211931 43.9884821 0.62390774 49.10302734 4.99316406 C49.92867188 5.97349609 49.92867188 5.97349609 50.77099609 6.97363281 C51.33431641 7.61945313 51.89763672 8.26527344 52.47802734 8.93066406 C56.96921784 15.69707508 56.62245391 23.34884991 55.95849609 31.16113281 C54.55178575 38.05306939 51.20270952 42.94457777 45.91186523 47.50732422 C39.92211997 50.86142312 33.04882841 49.97251386 26.39599609 49.66113281 C24.89544064 49.62093213 23.39478093 49.58444295 21.89404297 49.55175781 C18.24666569 49.46432711 14.6032604 49.32670261 10.95849609 49.16113281 C10.97009766 50.44890625 10.98169922 51.73667969 10.99365234 53.06347656 C11.00302879 54.74186054 11.01212914 56.42024607 11.02099609 58.09863281 C11.029375 58.94876953 11.03775391 59.79890625 11.04638672 60.67480469 C11.0512207 61.88813477 11.0512207 61.88813477 11.05615234 63.12597656 C11.06400757 64.24927368 11.06400757 64.24927368 11.07202148 65.39526367 C10.95849609 67.16113281 10.95849609 67.16113281 9.95849609 68.16113281 C7.42800207 68.23426848 4.92544773 68.25360808 2.39599609 68.22363281 C1.68507813 68.21912109 0.97416016 68.21460938 0.24169922 68.20996094 C-1.51940404 68.19814145 -3.28046427 68.18020544 -5.04150391 68.16113281 C-5.06463002 59.44269279 -5.08242036 50.72426325 -5.09331608 42.00579929 C-5.09854432 37.95787539 -5.10564089 33.90997241 -5.11694336 29.86206055 C-5.12777434 25.9587731 -5.13378119 22.05550582 -5.13638115 18.15220451 C-5.13823502 16.65979634 -5.14185491 15.16738933 -5.14723396 13.6749897 C-5.15444721 11.59165142 -5.15549473 9.5083975 -5.1550293 7.42504883 C-5.15724991 6.23702164 -5.15947052 5.04899445 -5.16175842 3.82496643 C-4.97315556 -0.35289444 -3.78420075 0.03407334 0 0 Z " fill="#FCFAFA" transform="translate(379.04150390625,261.8388671875)"/>
<path d="M0 0 C1.39456452 0.00667256 2.78911118 0.01863093 4.18359375 0.03515625 C4.89451172 0.03966797 5.60542969 0.04417969 6.33789062 0.04882812 C8.09899388 0.06064761 9.86005411 0.07858362 11.62109375 0.09765625 C11.64091309 1.25289795 11.66073242 2.40813965 11.68115234 3.59838867 C11.75736316 7.89434186 11.84605664 12.18996317 11.93847656 16.4855957 C11.97670241 18.34295081 12.01156638 20.20037833 12.04296875 22.05786133 C12.08875836 24.73154537 12.14672954 27.40473367 12.20703125 30.078125 C12.21858246 30.90539597 12.23013367 31.73266693 12.24203491 32.58500671 C12.2619046 33.36543839 12.28177429 34.14587006 12.30224609 34.94995117 C12.31556976 35.63167892 12.32889343 36.31340668 12.34262085 37.01579285 C12.61007662 39.662231 12.61007662 39.662231 14.62109375 44.09765625 C19.90109375 44.09765625 25.18109375 44.09765625 30.62109375 44.09765625 C30.61585693 42.80029541 30.61062012 41.50293457 30.60522461 40.16625977 C30.58717906 35.3711821 30.57566338 30.57610745 30.56616211 25.78100586 C30.56112087 23.70222469 30.55428801 21.62344709 30.5456543 19.54467773 C30.53357953 16.56363039 30.52786351 13.58262976 30.5234375 10.6015625 C30.51569557 9.19844566 30.51569557 9.19844566 30.50779724 7.76698303 C30.50772171 6.90616623 30.50764618 6.04534943 30.50756836 5.15844727 C30.50534775 4.3967775 30.50312714 3.63510773 30.50083923 2.85035706 C30.62109375 1.09765625 30.62109375 1.09765625 31.62109375 0.09765625 C33.9526943 -0.00143677 36.28739317 -0.03204879 38.62109375 -0.02734375 C39.89984375 -0.02992188 41.17859375 -0.0325 42.49609375 -0.03515625 C45.62109375 0.09765625 45.62109375 0.09765625 46.62109375 1.09765625 C46.73060044 2.89069146 46.77018706 4.68803928 46.78222656 6.484375 C46.79183411 7.63647461 46.80144165 8.78857422 46.81134033 9.97558594 C46.81559021 11.23274414 46.81984009 12.48990234 46.82421875 13.78515625 C46.82991882 15.07196289 46.8356189 16.35876953 46.8414917 17.68457031 C46.85201797 20.41846105 46.85784816 23.1523223 46.86132812 25.88623047 C46.86677871 29.36844476 46.89072474 32.85026123 46.91930008 36.33235168 C46.9425721 39.67077785 46.94438772 43.00915328 46.94921875 46.34765625 C46.96156555 47.58862061 46.97391235 48.82958496 46.9866333 50.1081543 C46.96511029 58.5515298 46.05517195 65.18837914 41.55859375 72.41015625 C33.30470843 79.96158325 23.96028106 79.62155416 13.328125 79.43359375 C8.28851607 79.19598172 3.32584797 78.80241047 -0.37890625 75.09765625 C-0.57421875 72.49609375 -0.57421875 72.49609375 -0.50390625 69.47265625 C-0.48585938 68.46976562 -0.4678125 67.466875 -0.44921875 66.43359375 C-0.41441406 65.27730469 -0.41441406 65.27730469 -0.37890625 64.09765625 C5.37109375 63.97265625 5.37109375 63.97265625 7.62109375 65.09765625 C10.42305666 65.19627606 13.19463422 65.23661701 15.99609375 65.22265625 C16.764375 65.22652344 17.53265625 65.23039062 18.32421875 65.234375 C19.44183594 65.23244141 19.44183594 65.23244141 20.58203125 65.23046875 C21.26056152 65.22934082 21.9390918 65.22821289 22.63818359 65.22705078 C24.73344792 65.09032459 26.60338523 64.6653658 28.62109375 64.09765625 C29.28109375 61.78765625 29.94109375 59.47765625 30.62109375 57.09765625 C30.05712891 57.1133667 29.49316406 57.12907715 28.91210938 57.14526367 C26.3152094 57.20827199 23.718471 57.24685223 21.12109375 57.28515625 C19.79078125 57.32286133 19.79078125 57.32286133 18.43359375 57.36132812 C12.22928538 57.429758 5.9485152 57.11289887 1.09619141 52.71582031 C-2.4229842 48.66081363 -4.63203411 45.09895472 -4.62182617 39.7121582 C-4.6249028 38.85479568 -4.62797943 37.99743317 -4.63114929 37.11408997 C-4.62396378 36.19729965 -4.61677826 35.28050934 -4.609375 34.3359375 C-4.60891678 33.38953903 -4.60845856 32.44314056 -4.60798645 31.46806335 C-4.6049695 29.4717788 -4.59709987 27.47549648 -4.5847168 25.47924805 C-4.56641255 22.41121157 -4.5642075 19.34347611 -4.56445312 16.27539062 C-4.55953962 14.33723695 -4.55371203 12.39908534 -4.546875 10.4609375 C-4.54576218 9.53807449 -4.54464935 8.61521149 -4.54350281 7.66438293 C-4.48680984 0.12967658 -4.48680984 0.12967658 0 0 Z " fill="#E02127" transform="translate(523.37890625,272.90234375)"/>
<path d="M0 0 C0.9075 -0.02900391 1.815 -0.05800781 2.75 -0.08789062 C8.89053036 -0.1454028 13.52155327 0.77103364 18.625 4.3125 C22.08135984 8.03473367 23.74135097 10.49294915 23.78613281 15.53100586 C23.79574036 16.40208481 23.8053479 17.27316376 23.81524658 18.17063904 C23.81949646 19.11335159 23.82374634 20.05606415 23.828125 21.02734375 C23.83382507 21.99402481 23.83952515 22.96070587 23.84539795 23.9566803 C23.85485336 26.00357974 23.86138407 28.05049445 23.86523438 30.09741211 C23.87494991 33.23382988 23.90597233 36.36959522 23.9375 39.50585938 C23.94402892 41.4921836 23.94927983 43.47851252 23.953125 45.46484375 C23.9654718 46.40553207 23.9778186 47.3462204 23.99053955 48.31541443 C23.98753845 49.18964554 23.98453735 50.06387665 23.98144531 50.96459961 C23.98691376 52.11804115 23.98691376 52.11804115 23.99249268 53.29478455 C23.5206464 55.88545254 22.71468367 56.74602757 20.625 58.3125 C14.18465344 59.55995451 7.6693244 59.5285476 1.125 59.5625 C-0.36580078 59.5934375 -0.36580078 59.5934375 -1.88671875 59.625 C-8.30440868 59.65891118 -14.86816772 59.49791957 -19.89599609 54.9309082 C-24.42539363 49.72610285 -25.8411968 45.68459516 -25.69140625 38.9140625 C-25.05101996 33.64866411 -22.79483554 29.85761514 -19.25 26 C-10.67058704 20.96425761 -2.12426822 20.9332057 7.625 21.3125 C6.85020264 18.32097418 6.85020264 18.32097418 5.625 15.3125 C2.62484088 14.31244696 0.65076244 14.19674415 -2.48046875 14.21484375 C-3.95483398 14.21967773 -3.95483398 14.21967773 -5.45898438 14.22460938 C-6.99522461 14.23717773 -6.99522461 14.23717773 -8.5625 14.25 C-9.59826172 14.25451172 -10.63402344 14.25902344 -11.70117188 14.26367188 C-14.25917266 14.2754599 -16.81705733 14.29191485 -19.375 14.3125 C-19.45586147 12.52156809 -19.51412702 10.72960372 -19.5625 8.9375 C-19.59730469 7.93976563 -19.63210938 6.94203125 -19.66796875 5.9140625 C-19.52294922 4.62628906 -19.52294922 4.62628906 -19.375 3.3125 C-13.62092768 -0.52354821 -6.71280061 0.07090987 0 0 Z " fill="#E02329" transform="translate(484.375,271.6875)"/>
<path d="M0 0 C1.27875 0.00257813 2.5575 0.00515625 3.875 0.0078125 C5.15375 0.00523437 6.4325 0.00265625 7.75 0 C10.875 0.1328125 10.875 0.1328125 11.875 1.1328125 C12.03517166 3.94257768 12.13450534 6.73054846 12.19140625 9.54296875 C12.21218735 10.38500351 12.23296844 11.22703827 12.25437927 12.09458923 C12.31996812 14.79474429 12.37880276 17.49499967 12.4375 20.1953125 C12.48067637 22.02149491 12.52429036 23.84766704 12.56835938 25.67382812 C12.67565894 30.16005242 12.77689966 34.646378 12.875 39.1328125 C13.25309814 38.62830566 13.63119629 38.12379883 14.02075195 37.60400391 C15.73811618 35.31822187 17.46270305 33.0379904 19.1875 30.7578125 C19.78240234 29.96375 20.37730469 29.1696875 20.99023438 28.3515625 C21.85551758 27.21074219 21.85551758 27.21074219 22.73828125 26.046875 C23.26719971 25.3451416 23.79611816 24.6434082 24.34106445 23.92041016 C26.21111804 21.74111167 27.84922437 20.2553207 30.77612305 19.90576172 C31.82086792 19.92147217 31.82086792 19.92147217 32.88671875 19.9375 C33.64404297 19.94394531 34.40136719 19.95039063 35.18164062 19.95703125 C36.36016602 19.98216797 36.36016602 19.98216797 37.5625 20.0078125 C38.35978516 20.01683594 39.15707031 20.02585937 39.97851562 20.03515625 C41.944139 20.05869665 43.90960775 20.09456703 45.875 20.1328125 C45.06036386 24.01811776 43.62566898 25.79660404 40.875 28.6953125 C37.44741771 32.40898513 34.07405606 36.14666769 30.8125 40.0078125 C30.05839844 40.89210938 29.30429688 41.77640625 28.52734375 42.6875 C26.50174535 45.19332144 26.50174535 45.19332144 26.875 49.1328125 C28.28797844 51.25670494 29.70456826 53.16795397 31.3125 55.1328125 C32.22578812 56.28604062 33.13853585 57.43969687 34.05078125 58.59375 C34.51822754 59.17866211 34.98567383 59.76357422 35.46728516 60.36621094 C37.67695883 63.13922494 39.84724338 65.94048458 42 68.7578125 C43.11761719 70.20027344 43.11761719 70.20027344 44.2578125 71.671875 C45.875 74.1328125 45.875 74.1328125 45.875 77.1328125 C43.14416098 77.26830065 40.42008193 77.36711105 37.6875 77.4453125 C36.91857422 77.48720703 36.14964844 77.52910156 35.35742188 77.57226562 C31.28736638 77.65960587 29.46488607 77.58878765 26.15625 75.03125 C25.02703125 73.59652344 25.02703125 73.59652344 23.875 72.1328125 C23.44082764 71.60550537 23.00665527 71.07819824 22.55932617 70.53491211 C21.19241759 68.8627739 19.87409666 67.16107525 18.5625 65.4453125 C17.8809082 64.57422852 17.8809082 64.57422852 17.18554688 63.68554688 C13.875 59.3793468 13.875 59.3793468 13.875 57.1328125 C13.215 57.1328125 12.555 57.1328125 11.875 57.1328125 C11.88285522 57.98830688 11.88285522 57.98830688 11.89086914 58.86108398 C11.91158221 61.43081573 11.9246419 64.00052997 11.9375 66.5703125 C11.94587891 67.46814453 11.95425781 68.36597656 11.96289062 69.29101562 C11.96772461 70.57202148 11.96772461 70.57202148 11.97265625 71.87890625 C11.98051147 73.06504517 11.98051147 73.06504517 11.98852539 74.27514648 C11.875 76.1328125 11.875 76.1328125 10.875 77.1328125 C8.34450598 77.20594817 5.84195163 77.22528777 3.3125 77.1953125 C2.60158203 77.19080078 1.89066406 77.18628906 1.15820312 77.18164062 C-0.60290013 77.16982114 -2.36396036 77.15188513 -4.125 77.1328125 C-4.14812428 67.24091874 -4.16591552 57.34903136 -4.17681217 47.45711613 C-4.18204082 42.8643861 -4.18913812 38.2716745 -4.20043945 33.67895508 C-4.211269 29.25047562 -4.21727698 24.82201394 -4.21987724 20.39352226 C-4.22173137 18.70015622 -4.22535175 17.00679121 -4.23073006 15.31343269 C-4.2379414 12.94990018 -4.2389909 10.58644205 -4.23852539 8.22290039 C-4.24212067 7.51583954 -4.24571594 6.80877869 -4.24942017 6.08029175 C-4.2367638 0.18006246 -4.2367638 0.18006246 0 0 Z " fill="#19549F" transform="translate(216.125,252.8671875)"/>
<path d="M0 0 C1.55460937 -0.02416992 1.55460937 -0.02416992 3.140625 -0.04882812 C12.29484324 -0.05466627 18.07975926 1.95250302 24.75 8.3125 C26.53815255 11.22917991 26.99921491 13.38941113 26.99291992 16.78979492 C26.99753487 18.10586983 26.99753487 18.10586983 27.00224304 19.4485321 C26.99505753 20.3871962 26.98787201 21.32586029 26.98046875 22.29296875 C26.98001053 23.26156326 26.97955231 24.23015778 26.9790802 25.22810364 C26.97606294 27.27146635 26.9681924 29.31482687 26.95581055 31.3581543 C26.93750806 34.49861723 26.93530123 37.63878608 26.93554688 40.77929688 C26.93063332 42.7630234 26.92480571 44.74674792 26.91796875 46.73046875 C26.91685593 47.67520554 26.9157431 48.61994232 26.91459656 49.5933075 C26.90821671 50.46123428 26.90183685 51.32916107 26.89526367 52.22338867 C26.88954597 53.37444344 26.88954597 53.37444344 26.88371277 54.54875183 C26.75 56.3125 26.75 56.3125 25.75 57.3125 C23.23863896 57.41225032 20.76096585 57.45132183 18.25 57.4375 C17.54746094 57.44136719 16.84492188 57.44523437 16.12109375 57.44921875 C10.87661378 57.43911378 10.87661378 57.43911378 9.75 56.3125 C9.58970312 53.35720496 9.49042672 50.42267543 9.43359375 47.46484375 C9.41281265 46.5784169 9.39203156 45.69199005 9.37062073 44.77870178 C9.305026 41.935883 9.24619448 39.09296883 9.1875 36.25 C9.1443242 34.32746394 9.10071022 32.40493766 9.05664062 30.48242188 C8.94933457 25.75921332 8.84809549 21.03590847 8.75 16.3125 C5.70786733 14.79143366 2.46952428 14.93820662 -0.875 14.75 C-1.58140625 14.70681641 -2.2878125 14.66363281 -3.015625 14.61914062 C-4.76018537 14.51305249 -6.50506697 14.41227111 -8.25 14.3125 C-8.24214478 16.21310181 -8.24214478 16.21310181 -8.23413086 18.15209961 C-8.21608486 22.8353607 -8.20456947 27.51861871 -8.19506836 32.2019043 C-8.19002722 34.23218298 -8.18319443 36.26245802 -8.17456055 38.29272461 C-8.16248533 41.20427347 -8.15676966 44.1157745 -8.15234375 47.02734375 C-8.14718246 47.9408812 -8.14202118 48.85441864 -8.13670349 49.79563904 C-8.13650832 51.96825427 -8.18788195 54.14077296 -8.25 56.3125 C-10.00559942 58.06809942 -12.28582442 57.44471919 -14.62109375 57.44921875 C-15.32363281 57.44535156 -16.02617187 57.44148438 -16.75 57.4375 C-17.45253906 57.44136719 -18.15507812 57.44523437 -18.87890625 57.44921875 C-24.12338622 57.43911378 -24.12338622 57.43911378 -25.25 56.3125 C-25.35382589 54.69669992 -25.38852243 53.07639376 -25.39526367 51.45727539 C-25.40164352 50.4227272 -25.40802338 49.38817902 -25.41459656 48.32228088 C-25.41570938 47.19627975 -25.4168222 46.07027863 -25.41796875 44.91015625 C-25.42296135 43.18810219 -25.42296135 43.18810219 -25.42805481 41.43125916 C-25.43312901 38.99755251 -25.43546298 36.56383888 -25.43530273 34.13012695 C-25.43748854 30.39457808 -25.45563746 26.65932465 -25.47460938 22.92382812 C-25.47754325 20.56510518 -25.47952808 18.20638083 -25.48046875 15.84765625 C-25.48765427 14.72367935 -25.49483978 13.59970245 -25.50224304 12.44166565 C-25.49916641 11.4039653 -25.49608978 10.36626495 -25.49291992 9.29711914 C-25.49434494 8.38080215 -25.49576996 7.46448517 -25.49723816 6.520401 C-25.25 4.3125 -25.25 4.3125 -23.25 2.3125 C-15.66422624 0.13965185 -7.83331005 -0.02472636 0 0 Z " fill="#E02429" transform="translate(305.25,272.6875)"/>
<path d="M0 0 C1.25941406 -0.01675781 2.51882812 -0.03351563 3.81640625 -0.05078125 C7.67403899 0.33623045 10.1131919 1.37118603 13.4375 3.3125 C13.46437279 5.12492052 13.48383715 6.93745233 13.5 8.75 C13.51160156 9.75933594 13.52320313 10.76867187 13.53515625 11.80859375 C13.4375 14.3125 13.4375 14.3125 12.4375 15.3125 C8.66668458 15.27089622 4.90559279 15.1843519 1.13867188 15.00976562 C-3.78371927 14.8673267 -3.78371927 14.8673267 -8.07421875 17.07421875 C-10.88741656 21.30509105 -10.74768546 25.16437309 -10.8125 30.1875 C-10.83828125 31.38117188 -10.8640625 32.57484375 -10.890625 33.8046875 C-10.51738012 37.79485297 -9.47934579 41.39565421 -6.5625 44.3125 C-5.07611008 44.46905027 -3.58300873 44.56316943 -2.08984375 44.62890625 C-0.74116211 44.69174805 -0.74116211 44.69174805 0.63476562 44.75585938 C1.58029297 44.79517578 2.52582031 44.83449219 3.5 44.875 C4.44939453 44.91818359 5.39878906 44.96136719 6.37695312 45.00585938 C8.73028176 45.11229132 11.08387099 45.21293154 13.4375 45.3125 C13.4375 49.2725 13.4375 53.2325 13.4375 57.3125 C6.15585909 60.95332045 -3.86370643 60.31248509 -11.79296875 58.625 C-17.13933927 56.68380647 -20.50103398 54.22939997 -23.5625 49.3125 C-24.77887181 46.36138695 -25.73351824 43.39317546 -26.5625 40.3125 C-26.74941406 39.66667969 -26.93632812 39.02085937 -27.12890625 38.35546875 C-28.84688841 30.26083207 -28.32424797 19.28531507 -24.26953125 11.984375 C-17.84241681 3.06241665 -11.03608675 0.03395719 0 0 Z " fill="#1E58A0" transform="translate(189.5625,271.6875)"/>
<path d="M0 0 C0.70253906 0.00386719 1.40507812 0.00773437 2.12890625 0.01171875 C2.83144531 0.00785156 3.53398437 0.00398438 4.2578125 0 C9.50229247 0.01010497 9.50229247 0.01010497 10.62890625 1.13671875 C10.72772218 2.84990821 10.75689594 4.56716678 10.75830078 6.28320312 C10.76145294 7.38104126 10.7646051 8.47887939 10.76785278 9.60998535 C10.76582855 10.80474487 10.76380432 11.99950439 10.76171875 13.23046875 C10.76315384 15.05596252 10.76315384 15.05596252 10.76461792 16.91833496 C10.76529997 19.49747774 10.76344397 22.07662222 10.75927734 24.65576172 C10.75392947 28.61950511 10.75922154 32.58313517 10.765625 36.546875 C10.76496422 39.04557317 10.76368307 41.54427127 10.76171875 44.04296875 C10.76374298 45.23772827 10.76576721 46.43248779 10.76785278 47.66345215 C10.76470062 48.76129028 10.76154846 49.85912842 10.75830078 50.99023438 C10.75750519 51.96206665 10.75670959 52.93389893 10.75588989 53.93518066 C10.62890625 56.13671875 10.62890625 56.13671875 9.62890625 57.13671875 C7.11754521 57.23646907 4.6398721 57.27554058 2.12890625 57.26171875 C1.42636719 57.26558594 0.72382813 57.26945312 0 57.2734375 C-5.24447997 57.26333253 -5.24447997 57.26333253 -6.37109375 56.13671875 C-6.46990968 54.42352929 -6.49908344 52.70627072 -6.50048828 50.99023438 C-6.50521652 49.34347717 -6.50521652 49.34347717 -6.51004028 47.66345215 C-6.50801605 46.46869263 -6.50599182 45.27393311 -6.50390625 44.04296875 C-6.50486298 42.8259729 -6.5058197 41.60897705 -6.50680542 40.35510254 C-6.50748747 37.77595976 -6.50563147 35.19681528 -6.50146484 32.61767578 C-6.49611697 28.65393239 -6.50140904 24.69030233 -6.5078125 20.7265625 C-6.50715172 18.22786433 -6.50587057 15.72916623 -6.50390625 13.23046875 C-6.50593048 12.03570923 -6.50795471 10.84094971 -6.51004028 9.60998535 C-6.50688812 8.51214722 -6.50373596 7.41430908 -6.50048828 6.28320312 C-6.49969269 5.31137085 -6.49889709 4.33953857 -6.49807739 3.33825684 C-6.24944571 -0.972315 -3.73144754 0.00718969 0 0 Z " fill="#1C579F" transform="translate(142.37109375,272.86328125)"/>
<path d="M0 0 C3.89749985 -0.16202078 7.78827006 -0.28093472 11.6875 -0.375 C13.34168945 -0.45041016 13.34168945 -0.45041016 15.02929688 -0.52734375 C22.96146421 -0.67112926 22.96146421 -0.67112926 25.86328125 1.20410156 C28.34945987 4.00105251 29.69257087 6.77008776 29.625 10.5 C29.63789063 11.2115625 29.65078125 11.923125 29.6640625 12.65625 C28.62074662 16.33854134 27.20610269 18.92813175 24 21 C19.87353672 21.74076378 15.86273833 21.56533816 11.6875 21.375 C10.56537109 21.34792969 9.44324219 21.32085937 8.28710938 21.29296875 C5.52391442 21.22241909 2.76171021 21.11480551 0 21 C0 14.07 0 7.14 0 0 Z " fill="#E02429" transform="translate(390,276)"/>
<path d="M0 0 C3.89749985 -0.16202078 7.78827006 -0.28093472 11.6875 -0.375 C13.34168945 -0.45041016 13.34168945 -0.45041016 15.02929688 -0.52734375 C22.96146421 -0.67112926 22.96146421 -0.67112926 25.86328125 1.20410156 C28.34945987 4.00105251 29.69257087 6.77008776 29.625 10.5 C29.63789062 11.2115625 29.65078125 11.923125 29.6640625 12.65625 C28.62074662 16.33854134 27.20610269 18.92813175 24 21 C19.87353672 21.74076378 15.86273833 21.56533816 11.6875 21.375 C10.56537109 21.34792969 9.44324219 21.32085937 8.28710938 21.29296875 C5.52391442 21.22241909 2.76171021 21.11480551 0 21 C0 14.07 0 7.14 0 0 Z " fill="#1C569F" transform="translate(66,276)"/>
<path d="M0 0 C0 4.62 0 9.24 0 14 C-11.03030303 14.48484848 -11.03030303 14.48484848 -15.25 12.375 C-17 10 -17 10 -17.625 7 C-17 4 -17 4 -15.25 1.625 C-10.17541789 -0.91229105 -5.62891205 -0.24742471 0 0 Z " fill="#F9F4F4" transform="translate(492,305)"/>
<path d="M0 0 C0.80179688 0.00451172 1.60359375 0.00902344 2.4296875 0.01367188 C4.41149006 0.02546832 6.39325433 0.04340395 8.375 0.0625 C8.045 1.0525 7.715 2.0425 7.375 3.0625 C7.375 2.4025 7.375 1.7425 7.375 1.0625 C-1.79545392 0.72212139 -1.79545392 0.72212139 -10.1796875 3.6875 C-11.84514151 5.4013282 -13.29457332 7.07980188 -14.625 9.0625 C-14.625 5.12618636 -13.19642871 3.93644974 -10.625 1.0625 C-7.31505287 -0.59247356 -3.63377 -0.03834335 0 0 Z " fill="#3968A3" transform="translate(253.625,272.9375)"/>
</svg>
