<?xml version="1.0" encoding="utf-8"?>
<!-- Generator: Adobe Illustrator 24.2.3, SVG Export Plug-In . SVG Version: 6.00 Build 0)  -->
<svg version="1.1" id="Layer_1" xmlns="http://www.w3.org/2000/svg" xmlns:xlink="http://www.w3.org/1999/xlink" wide="200px" height="92.95px"
	 viewBox="0 0 200 92.95" style="enable-background:new 0 0 200 92.95;" xml:space="preserve">
<style type="text/css">
	.st0{fill:#D0D2D3;}
	.st1{fill:#1879BE;}
</style>
<path class="st0" d="M0,27.28h17.85v6.75h0.23c1.6-3.09,4.92-8.93,15.9-8.93v19.11c-8.81,0.23-14.99,2.06-14.99,11.67v34.9H0V27.28z
	 M105.38,27.28H86.38v6.75h-0.23c-2.29-3.89-8.12-8.93-18.54-8.93c-16.93,0-31.92,13.04-31.92,33.87
	c0,18.19,11.79,33.98,31.92,33.98c7.43,0,15.33-2.86,18.54-9.04h0.23v6.87h18.99V27.28z M54.69,59.2c0-7.21,4.8-16.36,15.67-16.36
	c10.75,0,16.02,8.47,16.02,16.13c0,6.18-4,16.25-15.91,16.25C59.04,75.22,54.69,65.15,54.69,59.2 M133.18,90.78h-18.99v-63.5h18.99
	V90.78z M141.19,90.78h18.99V56.23c0-3.89,0-13.27,10.87-13.27c9.95,0,9.95,8.69,9.95,13.16v34.67H200v-39.7
	c0-12.47-3.89-17.51-7.32-20.48c-3.44-2.98-10.19-5.5-16.25-5.5c-11.33,0-15.33,5.84-17.28,8.93h-0.23v-6.75h-17.73V90.78z"/>
<path class="st1" d="M135.01,11.32c0-6.25-5.07-11.32-11.32-11.32c-6.26,0-11.32,5.07-11.32,11.32c0,6.25,5.07,11.32,11.32,11.32
	C129.94,22.64,135.01,17.57,135.01,11.32"/>
</svg>
