<?xml version="1.0" encoding="UTF-8"?>
<svg version="1.1" xmlns="http://www.w3.org/2000/svg" width="512" height="512">
<path d="M0 0 C168.96 0 337.92 0 512 0 C512 168.96 512 337.92 512 512 C343.04 512 174.08 512 0 512 C0 343.04 0 174.08 0 0 Z " fill="#C80F2F" transform="translate(0,0)"/>
<path d="M0 0 C1.36655475 -0.00131085 2.73310876 -0.0039424 4.09965879 -0.0077675 C7.82602212 -0.0144296 11.55212347 -0.00253939 15.27845347 0.01256669 C19.30760876 0.02558506 23.3367506 0.02113351 27.36592102 0.01885986 C34.33717505 0.01729078 41.3083445 0.02666171 48.27957726 0.04357338 C58.35865661 0.06800847 68.43769528 0.07577325 78.51680104 0.07953735 C94.87151946 0.08609478 111.22619285 0.10603666 127.58088684 0.13444519 C143.46304602 0.16200414 159.34519294 0.18322873 175.22737122 0.19596863 C176.2072028 0.1967568 177.18703439 0.19754497 178.19655784 0.19835702 C183.11234023 0.20227228 188.0281227 0.20606337 192.94390523 0.20979273 C233.69166414 0.24086655 274.43937349 0.293683 315.18708801 0.36076355 C314.87748241 3.97114351 314.5661172 7.58136977 314.25447083 11.1915741 C314.16811371 12.19885307 314.08175659 13.20613205 313.99278259 14.24393463 C313.26388857 22.67200972 312.43326398 31.08741751 311.53865051 39.49943542 C311.0067787 44.51579409 310.47870606 49.53253929 309.95210266 54.54945374 C309.72194766 56.74163716 309.49155748 58.93379591 309.26094055 61.12593079 C308.01495783 72.97493358 306.79096399 84.82619161 305.56748962 96.67753601 C304.93517409 102.79991277 304.30122944 108.92212089 303.66755676 115.0443573 C302.93756263 122.09773708 302.20826623 129.15118581 301.48249817 136.20500183 C300.07075123 149.92573846 298.64615524 163.64497187 297.18708801 177.36076355 C297.07074005 178.46028351 297.07074005 178.46028351 296.95204163 179.58201599 C296.5047823 183.80183189 296.0404501 188.01936659 295.56208801 192.23576355 C295.46323303 193.16139099 295.36437805 194.08701843 295.26252747 195.04069519 C293.12125969 213.20771646 284.52203925 228.70143968 270.59724426 240.54826355 C263.25638783 246.06877795 254.93142398 249.6777037 246.18708801 252.36076355 C245.08442345 252.70352766 243.98175888 253.04629177 242.84568024 253.39944267 C236.90895832 254.85775552 230.92709505 254.62971104 224.84883118 254.60127258 C223.49724099 254.60214569 222.14565115 254.60389859 220.79406309 254.60645092 C217.09518106 254.61090791 213.39641558 254.60294354 209.69754839 254.59289479 C205.70310512 254.58423875 201.70866815 254.58718198 197.71421814 254.58869934 C190.79858856 254.58974683 183.88299678 254.58348445 176.96737671 254.57222366 C166.96861925 254.55595319 156.96988003 254.55075907 146.97111076 254.54824768 C130.74784543 254.54387301 114.52460023 254.53057008 98.30134583 254.51164246 C82.54418539 254.49327777 66.78703043 254.47912414 51.02986145 254.47062683 C49.57237329 254.46983866 49.57237329 254.46983866 48.08544093 254.46903457 C43.21079881 254.46642445 38.33615666 254.46389704 33.46151447 254.46141076 C-6.96330836 254.44068535 -47.38810902 254.40546602 -87.81291199 254.36076355 C-87.66720078 251.68611126 -87.51828792 249.01169886 -87.36759949 246.33732605 C-87.32723572 245.5903949 -87.28687195 244.84346375 -87.24528503 244.07389832 C-86.97136533 239.26595527 -86.53003963 234.51513788 -85.93791199 229.73576355 C-85.84590515 228.99310242 -85.75389832 228.25044128 -85.65910339 227.48527527 C-85.57837585 226.84348328 -85.49764832 226.20169128 -85.41447449 225.54045105 C-84.43188566 217.38329838 -83.71730907 209.19468979 -82.95402527 201.01457214 C-82.33144911 194.42303653 -81.6529963 187.84422646 -80.86369324 181.2709198 C-79.62561312 170.95887421 -78.56619728 160.62930361 -77.50041199 150.29826355 C-77.28397231 148.20800119 -77.06741719 146.11775078 -76.85075378 144.0275116 C-76.51387267 140.77725416 -76.17708945 137.52698687 -75.84075928 134.27667236 C-75.04766051 126.61404561 -74.2483057 118.95208997 -73.44572449 111.29045105 C-73.11264681 108.10727849 -72.77962745 104.92409983 -72.4466095 101.74092102 C-72.23643677 99.73362673 -72.0259786 97.72636231 -71.81520081 95.71913147 C-71.51795394 92.88753025 -71.22171538 90.05582653 -70.92619324 87.2240448 C-70.78525238 85.87478912 -70.78525238 85.87478912 -70.64146423 84.49827576 C-70.15944144 79.84418644 -69.6984651 75.18894962 -69.26628113 70.529953 C-69.17803574 69.58013046 -69.08979034 68.63030792 -68.99887085 67.65170288 C-68.83331852 65.85379179 -68.67038268 64.05563697 -68.51062012 62.25720215 C-66.82392349 43.8717411 -59.86209292 30.10559041 -46.81291199 17.36076355 C-46.15549011 16.68271667 -45.49806824 16.0046698 -44.82072449 15.30607605 C-32.65816943 3.56111945 -16.34498089 -0.11444052 0 0 Z " fill="#C8112F" transform="translate(141.8129119873047,128.6392364501953)"/>
<path d="M0 0 C7.59 0 15.18 0 23 0 C23 37.95 23 75.9 23 115 C15.74 115 8.48 115 1 115 C0.505 110.545 0.505 110.545 0 106 C-0.66 106.9075 -1.32 107.815 -2 108.75 C-5.71494252 113.23977339 -10.57635441 115.19211814 -16 117 C-28.56534027 117.81802108 -38.04106199 117.28164253 -48.1875 109.125 C-57.70030991 100.04663338 -61.82948588 87.83925083 -62.32983398 74.97607422 C-62.59998792 61.66113581 -59.30456432 49.03038783 -50.15234375 38.96875 C-42.27731895 31.5790647 -33.34862565 28.63059249 -22.68359375 28.7890625 C-14.52168164 29.43061018 -7.96992513 32.4041694 -2 38 C-1.67 38.66 -1.34 39.32 -1 40 C-0.67 26.8 -0.34 13.6 0 0 Z " fill="#FDFBFB" transform="translate(290,157)"/>
<path d="M0 0 C1.36655475 -0.00131085 2.73310876 -0.0039424 4.09965879 -0.0077675 C7.82602212 -0.0144296 11.55212347 -0.00253939 15.27845347 0.01256669 C19.30760876 0.02558506 23.3367506 0.02113351 27.36592102 0.01885986 C34.33717505 0.01729078 41.3083445 0.02666171 48.27957726 0.04357338 C58.35865661 0.06800847 68.43769528 0.07577325 78.51680104 0.07953735 C94.87151946 0.08609478 111.22619285 0.10603666 127.58088684 0.13444519 C143.46304602 0.16200414 159.34519294 0.18322873 175.22737122 0.19596863 C176.2072028 0.1967568 177.18703439 0.19754497 178.19655784 0.19835702 C183.11234023 0.20227228 188.0281227 0.20606337 192.94390523 0.20979273 C233.69166414 0.24086655 274.43937349 0.293683 315.18708801 0.36076355 C314.87748241 3.97114351 314.5661172 7.58136977 314.25447083 11.1915741 C314.16811371 12.19885307 314.08175659 13.20613205 313.99278259 14.24393463 C313.26388857 22.67200972 312.43326398 31.08741751 311.53865051 39.49943542 C311.0067787 44.51579409 310.47870606 49.53253929 309.95210266 54.54945374 C309.72194766 56.74163716 309.49155748 58.93379591 309.26094055 61.12593079 C308.01495783 72.97493358 306.79096399 84.82619161 305.56748962 96.67753601 C304.93517409 102.79991277 304.30122944 108.92212089 303.66755676 115.0443573 C302.93756263 122.09773708 302.20826623 129.15118581 301.48249817 136.20500183 C300.07075123 149.92573846 298.64615524 163.64497187 297.18708801 177.36076355 C297.07074005 178.46028351 297.07074005 178.46028351 296.95204163 179.58201599 C296.5047823 183.80183189 296.0404501 188.01936659 295.56208801 192.23576355 C295.46323303 193.16139099 295.36437805 194.08701843 295.26252747 195.04069519 C293.12125969 213.20771646 284.52203925 228.70143968 270.59724426 240.54826355 C263.25638783 246.06877795 254.93142398 249.6777037 246.18708801 252.36076355 C245.08442345 252.70352766 243.98175888 253.04629177 242.84568024 253.39944267 C236.90895832 254.85775552 230.92709505 254.62971104 224.84883118 254.60127258 C223.49724099 254.60214569 222.14565115 254.60389859 220.79406309 254.60645092 C217.09518106 254.61090791 213.39641558 254.60294354 209.69754839 254.59289479 C205.70310512 254.58423875 201.70866815 254.58718198 197.71421814 254.58869934 C190.79858856 254.58974683 183.88299678 254.58348445 176.96737671 254.57222366 C166.96861925 254.55595319 156.96988003 254.55075907 146.97111076 254.54824768 C130.74784543 254.54387301 114.52460023 254.53057008 98.30134583 254.51164246 C82.54418539 254.49327777 66.78703043 254.47912414 51.02986145 254.47062683 C49.57237329 254.46983866 49.57237329 254.46983866 48.08544093 254.46903457 C43.21079881 254.46642445 38.33615666 254.46389704 33.46151447 254.46141076 C-6.96330836 254.44068535 -47.38810902 254.40546602 -87.81291199 254.36076355 C-87.66720078 251.68611126 -87.51828792 249.01169886 -87.36759949 246.33732605 C-87.32723572 245.5903949 -87.28687195 244.84346375 -87.24528503 244.07389832 C-86.97136533 239.26595527 -86.53003963 234.51513788 -85.93791199 229.73576355 C-85.84590515 228.99310242 -85.75389832 228.25044128 -85.65910339 227.48527527 C-85.57837585 226.84348328 -85.49764832 226.20169128 -85.41447449 225.54045105 C-84.43188566 217.38329838 -83.71730907 209.19468979 -82.95402527 201.01457214 C-82.33144911 194.42303653 -81.6529963 187.84422646 -80.86369324 181.2709198 C-79.62561312 170.95887421 -78.56619728 160.62930361 -77.50041199 150.29826355 C-77.28397231 148.20800119 -77.06741719 146.11775078 -76.85075378 144.0275116 C-76.51387267 140.77725416 -76.17708945 137.52698687 -75.84075928 134.27667236 C-75.04766051 126.61404561 -74.2483057 118.95208997 -73.44572449 111.29045105 C-73.11264681 108.10727849 -72.77962745 104.92409983 -72.4466095 101.74092102 C-72.23643677 99.73362673 -72.0259786 97.72636231 -71.81520081 95.71913147 C-71.51795394 92.88753025 -71.22171538 90.05582653 -70.92619324 87.2240448 C-70.78525238 85.87478912 -70.78525238 85.87478912 -70.64146423 84.49827576 C-70.15944144 79.84418644 -69.6984651 75.18894962 -69.26628113 70.529953 C-69.17803574 69.58013046 -69.08979034 68.63030792 -68.99887085 67.65170288 C-68.83331852 65.85379179 -68.67038268 64.05563697 -68.51062012 62.25720215 C-66.82392349 43.8717411 -59.86209292 30.10559041 -46.81291199 17.36076355 C-46.15549011 16.68271667 -45.49806824 16.0046698 -44.82072449 15.30607605 C-32.65816943 3.56111945 -16.34498089 -0.11444052 0 0 Z M-49.21916199 29.15763855 C-55.28168835 37.53818969 -59.7363108 47.00165365 -61.39494324 57.21232605 C-61.58199577 58.32228439 -61.58199577 58.32228439 -61.77282715 59.45466614 C-62.94911491 66.70733053 -63.66497562 73.98122675 -64.29063416 81.29878235 C-64.67960474 85.81743901 -65.09950347 90.33322313 -65.51994324 94.8490448 C-65.61509216 95.87148788 -65.71024109 96.89393097 -65.80827332 97.94735718 C-67.21012255 112.80775114 -68.83144933 127.64598894 -70.42619705 142.48665237 C-70.77497855 145.73386828 -71.12282353 148.98118423 -71.47067928 152.22849941 C-72.74226296 164.09831008 -74.0174566 175.96773317 -75.29447937 187.83695984 C-76.17316476 196.00523203 -77.0482431 204.17386922 -77.91746521 212.34315491 C-78.17867409 214.79053171 -78.44146148 217.23774061 -78.70591736 219.68476868 C-79.06832959 223.03861005 -79.42560485 226.39296119 -79.78166199 229.7474823 C-79.94041306 231.19841782 -79.94041306 231.19841782 -80.10237122 232.67866516 C-80.24429398 234.03083633 -80.24429398 234.03083633 -80.38908386 235.4103241 C-80.47154358 236.17894272 -80.5540033 236.94756134 -80.63896179 237.73947144 C-80.79005028 240.0162556 -80.83024598 242.24442618 -80.82378387 244.52459431 C-80.82019615 245.79053016 -80.81660843 247.05646601 -80.81291199 248.36076355 C-40.82875141 248.45242347 -0.84460459 248.52285521 39.13964015 248.56502487 C43.86574274 248.57002738 48.59184511 248.5752047 53.31794739 248.58049011 C54.72920334 248.58206397 54.72920334 248.58206397 56.16896951 248.58366963 C71.38039601 248.60105009 86.59176171 248.63257472 101.8031522 248.66937473 C117.4245171 248.70684991 133.04585027 248.72901328 148.66725826 248.73711753 C158.29777506 248.74259169 167.92811999 248.75984849 177.55858386 248.79242942 C184.17264811 248.8136586 190.78662419 248.81994468 197.40072 248.81476906 C201.21032112 248.81222027 205.01962303 248.81598193 208.82917023 248.83758545 C233.20362938 248.96882886 253.46563328 247.8050475 272.18708801 230.36076355 C283.84663966 218.05692295 288.81841696 203.40718567 290.58161926 186.83732605 C290.69414536 185.84346893 290.80667145 184.84961182 290.92260742 183.82563782 C291.29080171 180.54662872 291.64560271 177.26633476 291.99958801 173.98576355 C292.25904273 171.63839844 292.51881572 169.29106848 292.77888489 166.94377136 C294.99242627 146.79927703 296.97660545 126.6322071 298.92756653 106.46086121 C300.90012851 86.08541819 303.0093369 65.72640172 305.18318176 45.37150574 C305.36225067 43.69009491 305.36225067 43.69009491 305.54493713 41.97471619 C305.76175705 39.94077904 305.97958203 37.90694853 306.1988678 35.87327576 C306.92495877 29.06843876 307.58389437 22.25806082 308.22975159 15.44523621 C308.32206244 14.47363052 308.41437328 13.50202484 308.50948143 12.50097656 C308.73557428 10.12092673 308.96143721 7.74085532 309.18708801 5.36076355 C268.91409552 5.2691318 228.64111666 5.19868615 188.36804067 5.15650223 C183.609318 5.15149963 178.85059553 5.14632232 174.09187317 5.14103699 C173.14453002 5.13998775 172.19718687 5.1389385 171.22113635 5.13785747 C155.89842805 5.12047034 140.57578001 5.08894199 125.25310741 5.05215237 C109.52101093 5.01469582 93.78894593 4.99251774 78.05680668 4.98440957 C68.35565297 4.97893157 58.65466961 4.96165367 48.95356835 4.92909768 C42.29373136 4.90789155 35.63398196 4.90157726 28.97411369 4.90675804 C25.13640761 4.90931037 21.29899844 4.90550385 17.46134567 4.88394165 C13.28842632 4.86066861 9.11613106 4.86886291 4.94316101 4.87974548 C3.74661923 4.86809412 2.55007746 4.85644275 1.31727684 4.84443831 C-18.5427211 4.9837212 -36.50254233 13.92168858 -49.21916199 29.15763855 Z " fill="#FCF3F4" transform="translate(141.8129119873047,128.6392364501953)"/>
<path d="M0 0 C5.05639347 4.62750295 7.72077536 9.25337296 8.24050903 16.22714233 C8.23606781 17.38630157 8.23162659 18.54546082 8.22705078 19.73974609 C8.22734283 20.38435791 8.22763489 21.02896973 8.22793579 21.69311523 C8.22655315 23.80336423 8.21104311 25.91325092 8.1953125 28.0234375 C8.19157856 29.49459643 8.18873339 30.96575785 8.18673706 32.43692017 C8.17913056 36.29371098 8.159508 40.15034921 8.1373291 44.00708008 C8.11680613 47.94870948 8.10772159 51.89036373 8.09765625 55.83203125 C8.07625901 63.55476484 8.04110151 71.27734153 8 79 C0.74 79 -6.52 79 -14 79 C-14.495 75.535 -14.495 75.535 -15 72 C-15.52207031 72.39832031 -16.04414063 72.79664063 -16.58203125 73.20703125 C-27.16204035 80.82241434 -38.25911844 82.14876801 -51 81 C-58.19272189 79.42659209 -63.623095 75.93313788 -68 70 C-71.80437474 63.58691115 -72.13736361 55.86264154 -70.4609375 48.6953125 C-68.26695601 42.30624552 -64.79738286 37.9661761 -58.71484375 34.85546875 C-51.55182542 31.45616241 -44.3663207 30.35480429 -36.5625 29.3125 C-33.91557311 28.94748359 -31.27255332 28.56482625 -28.62890625 28.17578125 C-27.47463135 28.02020752 -26.32035645 27.86463379 -25.13110352 27.7043457 C-21.85379158 26.96711023 -19.69063566 25.99623814 -17 24 C-16.28551031 21.60804775 -16.28551031 21.60804775 -16.5 19 C-16.5103125 18.13375 -16.520625 17.2675 -16.53125 16.375 C-17.08165857 13.58626325 -17.75419373 12.69494813 -20 11 C-23.44665742 9.85111419 -26.24351905 9.7960653 -29.875 9.75 C-31.08929688 9.72421875 -32.30359375 9.6984375 -33.5546875 9.671875 C-37.4084933 10.03890412 -39.10308132 10.4361765 -42 13 C-42.99 15.64 -43.98 18.28 -45 21 C-52.59 21 -60.18 21 -68 21 C-66.93652085 11.42868768 -65.69650065 6.71400052 -58.3125 0.75 C-42.74155765 -10.05252522 -15.82879632 -11.09429028 0 0 Z " fill="#FCF9FA" transform="translate(393,193)"/>
<path d="M0 0 C7.92 0 15.84 0 24 0 C26.10798642 5.62129713 28.08034696 11.1624003 29.875 16.875 C30.1332959 17.69218506 30.3915918 18.50937012 30.65771484 19.35131836 C32.44194825 25.0561555 34.06772625 30.79210845 35.625 36.5625 C37.33817586 42.9102385 39.35353695 48.97013701 42 55 C44.65443497 46.56975815 47.2743237 38.1304694 49.82421875 29.66796875 C50.30007077 28.093081 50.77598245 26.51821127 51.25195312 24.94335938 C51.97847624 22.53906148 52.703423 20.13433714 53.42407227 17.72827148 C54.13622865 15.35260114 54.85463719 12.9788989 55.57421875 10.60546875 C55.89612434 9.52279976 55.89612434 9.52279976 56.22453308 8.41825867 C57.19707167 5.22853091 58.13444732 2.79832902 60 0 C62.24658203 -0.34057617 62.24658203 -0.34057617 65.0078125 -0.29296875 C65.99394531 -0.28330078 66.98007813 -0.27363281 67.99609375 -0.26367188 C69.02863281 -0.23853516 70.06117188 -0.21339844 71.125 -0.1875 C72.68541016 -0.16719727 72.68541016 -0.16719727 74.27734375 -0.14648438 C76.85207627 -0.11105228 79.4257833 -0.06165221 82 0 C80.77027167 6.07293002 79.16727179 11.87447628 77.12890625 17.72265625 C76.85047882 18.53423187 76.57205139 19.3458075 76.28518677 20.18197632 C75.38223278 22.81042993 74.47248028 25.43647159 73.5625 28.0625 C72.93486892 29.88469764 72.30767605 31.70704627 71.6809082 33.52954102 C70.40918667 37.22529628 69.13483228 40.92012754 67.85839844 44.61425781 C66.11791683 49.65382421 64.38904788 54.69729933 62.6640625 59.7421875 C61.91044852 61.94412947 61.15666629 64.14601375 60.40280151 66.34786987 C59.92755147 67.73623099 59.45255379 69.12467853 58.97781372 70.51321411 C58.32385454 72.42465554 57.66784371 74.33539467 57.01171875 76.24609375 C56.64522217 77.31529053 56.27872559 78.3844873 55.90112305 79.48608398 C55 82 55 82 54 84 C45.42 84 36.84 84 28 84 C27.30777344 81.91171875 26.61554688 79.8234375 25.90234375 77.671875 C24.91499513 74.69760641 23.92639433 71.723755 22.9375 68.75 C22.67722015 67.9672168 22.41694031 67.18443359 22.14877319 66.37792969 C16.79197677 50.28010094 11.31980168 34.22228754 5.81420898 18.17480469 C5.34399826 16.80131866 5.34399826 16.80131866 4.86428833 15.40008545 C4.27550058 13.68024453 3.68538911 11.960856 3.09371948 10.24200439 C2.83180817 9.47636169 2.56989685 8.71071899 2.30004883 7.921875 C2.07199051 7.25768555 1.84393219 6.59349609 1.60896301 5.90917969 C0.98860758 3.96428327 0.49512108 1.9804843 0 0 Z " fill="#FDFAFA" transform="translate(108,188)"/>
<path d="M0 0 C1.28132813 0.00902344 2.56265625 0.01804687 3.8828125 0.02734375 C4.87023437 0.03894531 5.85765625 0.05054688 6.875 0.0625 C6.875 3.3625 6.875 6.6625 6.875 10.0625 C4.82421875 10.29036458 2.7734375 10.51822917 0.72265625 10.74609375 C-1.13640229 10.88136614 -1.13640229 10.88136614 -2.125 12.0625 C-2.455 14.3725 -2.785 16.6825 -3.125 19.0625 C1.825 19.0625 6.775 19.0625 11.875 19.0625 C11.7925 17.53625 11.71 16.01 11.625 14.4375 C11.64600566 9.4871667 12.3608474 6.75686555 15.875 3.0625 C21.9242669 -0.71829181 27.904842 -0.24652178 34.875 0.0625 C34.875 3.3625 34.875 6.6625 34.875 10.0625 C30.42 10.5575 30.42 10.5575 25.875 11.0625 C25.545 13.7025 25.215 16.3425 24.875 19.0625 C27.845 19.0625 30.815 19.0625 33.875 19.0625 C33.875 21.7025 33.875 24.3425 33.875 27.0625 C30.905 27.0625 27.935 27.0625 24.875 27.0625 C24.875 40.5925 24.875 54.1225 24.875 68.0625 C20.585 68.0625 16.295 68.0625 11.875 68.0625 C11.875 54.8625 11.875 41.6625 11.875 28.0625 C6.925 28.0625 1.975 28.0625 -3.125 28.0625 C-3.125 41.2625 -3.125 54.4625 -3.125 68.0625 C-7.745 68.0625 -12.365 68.0625 -17.125 68.0625 C-17.125 54.8625 -17.125 41.6625 -17.125 28.0625 C-19.765 28.0625 -22.405 28.0625 -25.125 28.0625 C-25.125 24.7625 -25.125 21.4625 -25.125 18.0625 C-22.485 18.0625 -19.845 18.0625 -17.125 18.0625 C-17.2178125 16.515625 -17.2178125 16.515625 -17.3125 14.9375 C-17.10767469 10.70444356 -16.40556192 8.60130298 -14.125 5.0625 C-9.18266273 0.60234197 -6.61468824 -0.06013353 0 0 Z " fill="#FDF9FA" transform="translate(318.125,279.9375)"/>
<path d="M0 0 C7.59 0 15.18 0 23 0 C23 27.72 23 55.44 23 84 C15.41 84 7.82 84 0 84 C0 56.28 0 28.56 0 0 Z " fill="#FDF9FA" transform="translate(197,188)"/>
<path d="M0 0 C2.65101803 2.29591631 4.42643174 4.85286347 6 8 C6.08705146 10.98970289 6.11550145 13.95584955 6.09765625 16.9453125 C6.0962413 17.8303244 6.09482635 18.7153363 6.09336853 19.62716675 C6.0877614 22.45981191 6.07520771 25.29237864 6.0625 28.125 C6.05748592 30.04296761 6.05292285 31.96093646 6.04882812 33.87890625 C6.03778966 38.58596782 6.02052025 43.2929706 6 48 C1.71 48 -2.58 48 -7 48 C-7 46.68 -7 45.36 -7 44 C-8.11375 44.639375 -9.2275 45.27875 -10.375 45.9375 C-14.89392026 48.53169496 -18.08509729 49.2101342 -23.3125 49.25 C-24.62863281 49.27578125 -25.94476563 49.3015625 -27.30078125 49.328125 C-32.4601798 48.87048036 -34.88134592 47.27402271 -38.25 43.4375 C-41.43824901 38.9967246 -41.65148664 35.37476474 -41 30 C-38.15669679 24.31339359 -34.87548416 22.01840064 -29 19.9375 C-24.38219302 18.70131716 -19.62294246 18.17880181 -14.890625 17.5625 C-11.81851585 17.1574674 -11.81851585 17.1574674 -9 15 C-8.74984127 11.41642759 -8.74984127 11.41642759 -9 8 C-13.38214761 7.6580405 -17.63128921 7.44019033 -22 8 C-22.99 9.485 -22.99 9.485 -24 11 C-24.99 12.485 -24.99 12.485 -26 14 C-30.36871079 14.55980967 -34.61785239 14.3419595 -39 14 C-38.71662045 9.27700754 -38.01224068 5.88444665 -34.69140625 2.35546875 C-25.34456917 -5.13495265 -10.47427642 -5.28590114 0 0 Z " fill="#FCF6F7" transform="translate(285,300)"/>
<path d="M0 0 C5.80171357 4.21423683 8.78453648 9.26499089 11 16 C11 19.63 11 23.26 11 27 C-0.55 27 -12.1 27 -24 27 C-22.12555779 35.69302969 -22.12555779 35.69302969 -18 38 C-13.35548871 38.60614808 -9.22843684 38.55154307 -4.9375 36.625 C-2.9029385 35.13747501 -2.9029385 35.13747501 -2 33 C1.96 33 5.92 33 10 33 C8.40682972 39.53199815 4.98035039 44.13185034 -0.6796875 47.6796875 C-4.73561708 49.29251597 -8.05354499 49.49817715 -12.375 49.4375 C-13.13014893 49.42920166 -13.88529785 49.42090332 -14.66333008 49.41235352 C-22.32775532 49.17914253 -27.0077453 47.3494633 -32.3125 41.75 C-38.35392359 33.93071878 -39.14880598 25.7374983 -38 16 C-35.93455875 9.15191478 -32.14378429 3.73059447 -26 0 C-17.34689301 -4.10048133 -8.62203338 -4.35753845 0 0 Z " fill="#FCF7F7" transform="translate(390,300)"/>
<path d="M0 0 C2.8125 2.375 2.8125 2.375 5 5 C5.721875 5.825 6.44375 6.65 7.1875 7.5 C12.07449047 14.24067651 11 18.02509422 11 27 C-0.55 27 -12.1 27 -24 27 C-22.12555779 35.69302969 -22.12555779 35.69302969 -18 38 C-13.35548871 38.60614808 -9.22843684 38.55154307 -4.9375 36.625 C-2.9029385 35.13747501 -2.9029385 35.13747501 -2 33 C1.96 33 5.92 33 10 33 C8.4072645 39.53021556 4.98230292 44.13768857 -0.68359375 47.67578125 C-4.71244241 49.28447347 -8.01516305 49.53726015 -12.3125 49.5 C-13.44026855 49.49250732 -13.44026855 49.49250732 -14.59082031 49.48486328 C-21.65864189 49.2631337 -26.27939644 47.35232047 -31.5390625 42.61328125 C-37.50645551 36.24457234 -38.69685192 28.77943493 -38.47265625 20.38671875 C-37.4149211 12.80774046 -34.02724728 6.16202524 -28 1.375 C-19.13593156 -4.32213284 -9.46059502 -4.62886813 0 0 Z " fill="#FCF7F8" transform="translate(161,300)"/>
<path d="M0 0 C6.02220331 4.51665248 9.11622469 9.51631889 10.5 16.875 C11.37692842 27.03775945 10.32129584 36.12791588 5.8125 45.3125 C1.55387787 50.03151371 -3.09983012 52.06631808 -9.4375 52.5 C-15.25383581 52.2311401 -19.34972884 49.87250044 -23.5 45.875 C-25.31232775 43.33363389 -26.45369988 40.80579647 -27.5 37.875 C-27.9125 36.84375 -28.325 35.8125 -28.75 34.75 C-30.83660491 23.96920795 -30.00509246 15.15999337 -24.6875 5.625 C-18.27101407 -2.44143946 -9.52903948 -3.06290555 0 0 Z " fill="#C81330" transform="translate(277.5,205.125)"/>
<path d="M0 0 C4.23057409 2.70036644 6.18377444 5.31604988 8 10 C8 11.65 8 13.3 8 15 C3.71 15 -0.58 15 -5 15 C-5.45375 14.030625 -5.9075 13.06125 -6.375 12.0625 C-7.65786221 8.92920418 -7.65786221 8.92920418 -10 8 C-13.05920574 7.57928408 -15.9467746 7.51485883 -19 8 C-21.75569447 10.18159145 -23.43588747 11.87177494 -25 15 C-25.14977039 17.24655587 -25.22150174 19.49863768 -25.25 21.75 C-25.27578125 22.96171875 -25.3015625 24.1734375 -25.328125 25.421875 C-24.96920476 29.33581478 -24.07557707 31.68295627 -22 35 C-18.32317905 37.45121397 -15.27079037 37.82418762 -11 37 C-7.21466986 34.10059819 -6.16622754 32.66491015 -5 28 C-0.38 28 4.24 28 9 28 C7.38511521 35.80527647 4.87526562 41.41648959 -2 46 C-9.40564678 48.96012144 -18.09161213 49.49054151 -25.765625 47.16015625 C-32.19117775 43.91459644 -36.48763692 38.78608702 -39.140625 32.14453125 C-41.06954784 25.08642722 -41.17079045 16.60073899 -38.09765625 9.83984375 C-29.36587853 -4.79598297 -14.85634077 -7.79084778 0 0 Z " fill="#FCF7F8" transform="translate(232,301)"/>
<path d="M0 0 C0.49922877 9.87363569 0.38682869 16.62259708 -5.9375 24.375 C-11.59109572 28.82934815 -18.1023503 28.7747022 -25 28 C-28.77361618 26.53528856 -30.74857145 24.37714283 -33 21 C-33.43437823 16.51142499 -33.63041871 14.13475368 -31.4375 10.1875 C-26.39478201 5.66198386 -20.37247862 4.47537702 -13.875 3.4375 C-9.44054189 2.71223816 -4.22375736 0 0 0 Z " fill="#C91634" transform="translate(378,231)"/>
<path d="M0 0 C0.33 0 0.66 0 1 0 C1 13.2 1 26.4 1 40 C-12.2 40 -25.4 40 -39 40 C-35.77794772 38.38897386 -32.66489916 37.09649079 -29.3125 35.8125 C-15.51707063 30.0826079 -7.84569744 20.43421151 -2 7 C-1.17531121 4.65945467 -0.55058312 2.42256574 0 0 Z " fill="#000000" transform="translate(511,472)"/>
<path d="M0 0 C1.61102614 3.22205228 2.90350921 6.33510084 4.1875 9.6875 C9.9173921 23.48292937 19.56578849 31.15430256 33 37 C35.34054533 37.82468879 37.57743426 38.44941688 40 39 C40 39.33 40 39.66 40 40 C26.8 40 13.6 40 0 40 C0 26.8 0 13.6 0 0 Z " fill="#000000" transform="translate(0,472)"/>
<path d="M0 0 C13.2 0 26.4 0 40 0 C40 13.2 40 26.4 40 40 C38.38897386 36.77794772 37.09649079 33.66489916 35.8125 30.3125 C30.0826079 16.51707063 20.43421151 8.84569744 7 3 C4.65945467 2.17531121 2.42256574 1.55058312 0 1 C0 0.67 0 0.34 0 0 Z " fill="#000000" transform="translate(472,0)"/>
<path d="M0 0 C13.2 0 26.4 0 40 0 C36.77794772 1.61102614 33.66489916 2.90350921 30.3125 4.1875 C16.51707063 9.9173921 8.84569744 19.56578849 3 33 C2.17531121 35.34054533 1.55058312 37.57743426 1 40 C0.67 40 0.34 40 0 40 C0 26.8 0 13.6 0 0 Z " fill="#000000" transform="translate(0,0)"/>
<path d="M0 0 C7.59 0 15.18 0 23 0 C23 6.6 23 13.2 23 20 C15.41 20 7.82 20 0 20 C0 13.4 0 6.8 0 0 Z " fill="#FAEDEF" transform="translate(197,156)"/>
<path d="M0 0 C0.62739631 8.9752527 0.62739631 8.9752527 -1.875 13.0625 C-4.99193709 15.90441323 -6.80048183 16.177101 -10.9375 16.25 C-11.81277344 16.27578125 -12.68804687 16.3015625 -13.58984375 16.328125 C-16 16 -16 16 -17.79296875 14.671875 C-19.66250799 12.0823514 -19.38702178 10.09617422 -19 7 C-15.55640983 1.92523554 -8.69597317 1.4415333 -3.109375 0.3671875 C-1 0 -1 0 0 0 Z " fill="#C91633" transform="translate(277,324)"/>
<path d="M0 0 C4.42727286 3.16233776 4.90980952 4.54904761 6 10 C-1.26 10 -8.52 10 -16 10 C-15 4 -15 4 -13.0625 1.625 C-8.6915904 -0.69425816 -4.84638689 -0.92312131 0 0 Z " fill="#C91533" transform="translate(153,308)"/>
<path d="M0 0 C2.67218941 1.77003999 3.38075355 3.09652361 5 6 C5 7.32 5 8.64 5 10 C-1.93 10 -8.86 10 -16 10 C-15 4 -15 4 -13.625 1.625 C-9.32063115 -1.03960929 -4.90008235 -0.9713181 0 0 Z " fill="#C81330" transform="translate(382,308)"/>
<path d="M0 0 C6.27279004 0.63474661 13.8869155 2.14480417 19 6 C19.33 7.65 19.66 9.3 20 11 C13.07 11 6.14 11 -1 11 C-1 1 -1 1 0 0 Z " fill="#FCF8F9" transform="translate(369,282)"/>
</svg>
