<?xml version="1.0" encoding="UTF-8"?>
<svg version="1.1" xmlns="http://www.w3.org/2000/svg" width="225" height="225">
<path d="M0 0 C74.25 0 148.5 0 225 0 C225 74.25 225 148.5 225 225 C150.75 225 76.5 225 0 225 C0 150.75 0 76.5 0 0 Z " fill="#F41B5E" transform="translate(0,0)"/>
<path d="M0 0 C5.875 1.875 5.875 1.875 7 3 C6.5739028 8.99864961 5.12147519 14.08860675 3 19.6875 C0.54637233 26.21253006 0.54637233 26.21253006 -1 33 C-0.30777344 32.96519531 0.38445312 32.93039063 1.09765625 32.89453125 C9.80063166 32.65373746 17.55741721 34.06235805 26 36 C26 40 26 40 24.73828125 41.640625 C22.93493562 43.05088181 21.29449094 43.86897026 19.1875 44.75 C13.37761604 47.53189655 9.5812495 52.14609488 7 58 C6.61709538 59.99110401 6.27395385 61.99100513 6 64 C10.93359459 61.53777932 13.87029889 57.98245687 17.3125 53.8125 C17.86228516 53.15830078 18.41207031 52.50410156 18.97851562 51.83007812 C20.32546666 50.2254495 21.66362849 48.61345013 23 47 C27.765625 47.8671875 27.765625 47.8671875 29.875 49.0625 C31.73920384 52.27307328 30.64142027 55.51981872 30 59 C29.80712847 60.33256692 29.61918148 61.66586138 29.4375 63 C29.293125 63.99 29.14875 64.98 29 66 C30.98 66 32.96 66 35 66 C35.01417969 65.08863281 35.02835938 64.17726563 35.04296875 63.23828125 C35.76654678 43.58433743 40.45827964 21.29419346 52 5 C54.67857172 5.36196915 56.60980914 5.73987276 58.875 7.25 C60 9 60 9 59.69067383 11.28149414 C58.99059585 14.03701491 58.10492278 16.59704774 57.07421875 19.24609375 C56.69128662 20.24165283 56.30835449 21.23721191 55.91381836 22.26293945 C55.5091333 23.31054443 55.10444824 24.35814941 54.6875 25.4375 C47.49666329 43.66456169 47.49666329 43.66456169 46 63 C49.7280766 61.50211208 51.55868636 59.39700586 54 56.25 C55.04414063 54.91195312 55.04414063 54.91195312 56.109375 53.546875 C57.58048932 51.56512595 58.94562975 49.59113326 60.25 47.5 C62.06449381 44.90786598 62.96346328 43.82814638 66 43 C68.5625 43.0625 68.5625 43.0625 71 44 C74.84969767 48.57852392 74.54662385 53.61707863 74.6875 59.3125 C74.72166016 60.24384766 74.75582031 61.17519531 74.79101562 62.13476562 C74.87315941 64.42305672 74.94241662 66.71098104 75 69 C76.98 69.495 76.98 69.495 79 70 C79 70.66 79 71.32 79 72 C75.77558412 73.61220794 72.48723889 73.58120648 69 73 C64.70510789 69.60929571 64.20943491 65.25773831 63.39453125 60.109375 C63.20956948 58.02121848 63.20956948 58.02121848 62 57 C61.50371094 57.73605469 61.00742188 58.47210938 60.49609375 59.23046875 C56.52116248 64.94018976 53.18692523 69.67739201 47 73 C42.79576285 73.565955 41.56479845 73.3765323 38 71 C38 70.34 38 69.68 38 69 C37.01 69.66 36.02 70.32 35 71 C30.74609701 73.41600981 27.84852482 73.63587211 23 73 C20.5 71.1875 20.5 71.1875 19 69 C19 68.01 19 67.02 19 66 C18.3709375 66.5053125 17.741875 67.010625 17.09375 67.53125 C9.22316491 73.50530856 9.22316491 73.50530856 4.625 73.6875 C1 73 1 73 -1.5 71.6875 C-3.97621628 67.25094583 -3.78298958 62.94519736 -3 58 C-0.58327314 51.84055455 4.26865194 47.45303347 9 43 C4.38 43 -0.24 43 -5 43 C-5.103125 44.175625 -5.20625 45.35125 -5.3125 46.5625 C-7.79741738 68.0076774 -7.79741738 68.0076774 -14 73 C-15.32 73 -16.64 73 -18 73 C-18.18391744 52.31950547 -18.18391744 52.31950547 -17.12109375 43.41015625 C-16.866677 40.95262374 -16.866677 40.95262374 -17.72265625 38.49609375 C-18 36 -18 36 -16.3046875 33.7890625 C-15.54414062 32.86867187 -14.78359375 31.94828125 -14 31 C-12.51946875 27.86467122 -11.33785093 24.62172719 -10.125 21.375 C-7.24248537 13.89186175 -4.16230112 6.87410336 0 0 Z " fill="#FEF8F9" transform="translate(81,67)"/>
<path d="M0 0 C0.33 0 0.66 0 1 0 C1 34.65 1 69.3 1 105 C-33.65 105 -68.3 105 -104 105 C-104 104.67 -104 104.34 -104 104 C-102.8140625 103.84144531 -101.628125 103.68289062 -100.40625 103.51953125 C-69.27648572 99.13437369 -42.1034287 85.93244515 -22.40234375 60.77734375 C-8.96811603 42.18142305 -3.00453079 22.47291321 0 0 Z " fill="#FEFCFD" transform="translate(224,120)"/>
<path d="M0 0 C0.33 0 0.66 0 1 0 C1.12375 1.05574219 1.2475 2.11148438 1.375 3.19921875 C5.3582501 33.13353161 20.50651774 59.59486395 44.09375 78.4765625 C61.53486429 91.03934532 80.04688066 97.16962815 101 101 C101 101.33 101 101.66 101 102 C67.67 102 34.34 102 0 102 C0 68.34 0 34.68 0 0 Z " fill="#FEFDFD" transform="translate(0,123)"/>
<path d="M0 0 C33.66 0 67.32 0 102 0 C102 33.33 102 66.66 102 101 C101.67 101 101.34 101 101 101 C100.88519287 100.3922876 100.77038574 99.7845752 100.65209961 99.15844727 C95.58940529 72.9002032 86.93186273 52.11877816 68 33 C67.07767578 31.98679687 67.07767578 31.98679687 66.13671875 30.953125 C49.38461862 12.82926481 23.6685258 4.30071278 0 1 C0 0.67 0 0.34 0 0 Z " fill="#FEFDFD" transform="translate(123,0)"/>
<path d="M0 0 C33.99 0 67.98 0 103 0 C103 0.33 103 0.66 103 1 C101.27330078 1.20302734 101.27330078 1.20302734 99.51171875 1.41015625 C76.48880927 4.40433118 55.21991529 13.17698049 38 29 C37.51047852 29.44714355 37.02095703 29.89428711 36.51660156 30.35498047 C15.39412376 49.86347059 4.69329316 74.83488628 1 103 C0.67 103 0.34 103 0 103 C0 69.01 0 35.02 0 0 Z " fill="#FEFDFD" transform="translate(0,0)"/>
<path d="M0 0 C5.75 0.75 5.75 0.75 8 3 C7.71029292 9.59640738 5.69786985 15.34105165 3.4375 21.5 C3.10814453 22.4178125 2.77878906 23.335625 2.43945312 24.28125 C1.6336491 26.52348728 0.81784835 28.76212775 0 31 C4.29 31.33 8.58 31.66 13 32 C12.5294324 38.35266265 11.7989119 43.88369955 10 50 C9.83152909 53.29219428 9.83152909 53.29219428 10 56 C13.4600967 55.71043162 15.4581773 55.48308304 18.08984375 53.13671875 C19.00443359 51.92435547 19.00443359 51.92435547 19.9375 50.6875 C20.61167969 49.79546875 21.28585938 48.9034375 21.98046875 47.984375 C24.72493652 43.92872051 27.08462416 39.70526707 29.359375 35.37109375 C31 33 31 33 33.0625 32.10546875 C35 32 35 32 37.25 32.875 C39.51746152 35.62834613 39.48821204 37.79605762 39.32421875 41.28515625 C38.68434508 46.64313461 37.41445281 51.79944722 36 57 C35.7215625 58.02738281 35.443125 59.05476563 35.15625 60.11328125 C31.5452138 72.11375069 24.53746496 83.69989591 13.671875 90.4453125 C8.97366595 92.73049581 5.19048027 93.441743 0 93 C2.22518963 90.59820802 4.52950403 88.96113396 7.3125 87.25 C17.48034009 80.50434557 23.31390301 69.81882674 26 58 C25.18595703 58.63228516 25.18595703 58.63228516 24.35546875 59.27734375 C23.64003906 59.82519531 22.92460937 60.37304688 22.1875 60.9375 C21.47980469 61.48277344 20.77210938 62.02804688 20.04296875 62.58984375 C16.74361283 64.86721944 13.91013526 65.18017616 10 65.25 C9.13375 65.27578125 8.2675 65.3015625 7.375 65.328125 C5 65 5 65 3.25 63.671875 C0.92387147 60.56067809 0.618581 57.27958122 0.6328125 53.47265625 C1.39448695 48.34350812 3.82241876 43.66624551 6 39 C3.03 39 0.06 39 -3 39 C-3.34611328 41.06121094 -3.34611328 41.06121094 -3.69921875 43.1640625 C-4.02765785 44.98455352 -4.35714017 46.80485655 -4.6875 48.625 C-4.83638672 49.52863281 -4.98527344 50.43226562 -5.13867188 51.36328125 C-6.23986585 57.27949985 -7.59373861 60.82272542 -12 65 C-12.66 65 -13.32 65 -14 65 C-13.97643433 63.79670044 -13.97643433 63.79670044 -13.95239258 62.5690918 C-13.89011417 58.94196596 -13.85103136 55.31495251 -13.8125 51.6875 C-13.78736328 50.42486328 -13.76222656 49.16222656 -13.73632812 47.86132812 C-13.72666016 46.65283203 -13.71699219 45.44433594 -13.70703125 44.19921875 C-13.6913208 43.08377686 -13.67561035 41.96833496 -13.65942383 40.8190918 C-13.75178209 37.96795151 -13.75178209 37.96795151 -15.51831055 36.11254883 C-16.00726807 35.74540771 -16.49622559 35.3782666 -17 35 C-16.34 33.68 -15.68 32.36 -15 31 C-13.68 31 -12.36 31 -11 31 C-10.90928223 30.40719238 -10.81856445 29.81438477 -10.72509766 29.20361328 C-9.52153546 22.28009815 -7.24743986 16.26617868 -4.375 9.875 C-3.95476562 8.91851562 -3.53453125 7.96203125 -3.1015625 6.9765625 C-2.07653625 4.64695739 -1.04264488 2.32175932 0 0 Z " fill="#FEF7F9" transform="translate(176,75)"/>
<path d="M0 0 C0 0.66 0 1.32 0 2 C-1.29706607 2.88873046 -2.64052365 3.71003401 -4 4.5 C-25.88253547 18.79203098 -34.21444918 52.36320109 -39.50488281 76.28271484 C-39.9443004 78.20292706 -40.46551453 80.10404956 -41 82 C-43.88415883 83.44207941 -46.41721528 83.09394887 -49.625 83.0625 C-50.81351563 83.05347656 -52.00203125 83.04445313 -53.2265625 83.03515625 C-54.59941406 83.01775391 -54.59941406 83.01775391 -56 83 C-62.26195004 68.43245096 -61.08712342 50.78175192 -61.17523193 35.18377686 C-61.18338846 33.81498167 -61.19448083 32.44620072 -61.20855713 31.07745361 C-61.22641738 29.13764171 -61.22872894 27.19770584 -61.23046875 25.2578125 C-61.23457764 24.1248877 -61.23868652 22.99196289 -61.24291992 21.82470703 C-61 19 -61 19 -59 16 C-56.13504092 16.30972531 -54.46317191 16.55199371 -52.35961914 18.58666992 C-50.47991258 21.9231575 -50.59759539 24.54555822 -50.55859375 28.36328125 C-50.54538589 29.07348923 -50.53217804 29.7836972 -50.51856995 30.51542664 C-50.47777887 32.78115722 -50.45605216 35.04648628 -50.4375 37.3125 C-50.41359354 39.56767572 -50.38524112 41.82247989 -50.34571838 44.07743835 C-50.32166367 45.47754522 -50.3065605 46.87784605 -50.30210876 48.27815247 C-50.22953592 52.88934407 -49.41269723 56.65710777 -48 61 C-47.81002441 60.46334717 -47.62004883 59.92669434 -47.42431641 59.3737793 C-39.53560658 37.32518647 -30.44775785 14.16656502 -9.875 1 C-6.44934517 -0.19153211 -3.60119564 -0.21607174 0 0 Z " fill="#FEF8F9" transform="translate(74,57)"/>
<path d="M0 0 C2.4375 1.0625 2.4375 1.0625 5 3 C6.92855197 8.66512143 5.3302644 13.22439101 3.7578125 18.85546875 C2.8034821 22.81544801 2.5493759 26.66145892 2.40625 30.72265625 C1.91739041 33.4630903 1.22605705 34.36720816 -1 36 C-4.08815875 36.38601984 -6.10184376 36.47901666 -8.875 35 C-11.77028407 29.85282832 -9.75908637 22.52417416 -8.375 17.0625 C-8.20258789 16.37027344 -8.03017578 15.67804688 -7.85253906 14.96484375 C-6.29790738 9.20974276 -3.83311026 4.59973231 0 0 Z " fill="#FEF6F8" transform="translate(52,104)"/>
<path d="M0 0 C1.8125 0 1.8125 0 4 1 C7.34489734 4.42268565 9.72035159 7.10615279 10 12 C9 13 9 13 5.625 13.25 C2 13 2 13 0.125 12 C-1.72348644 8.71380188 -1.82082954 5.76257962 -2 2 C-1.34 1.34 -0.68 0.68 0 0 Z " fill="#FEF6F8" transform="translate(54,86)"/>
<path d="M0 0 C3.85636159 0.17139385 5.56799795 0.60122887 8.4375 3.25 C10 6 10 6 9.875 8.6875 C9 11 9 11 7 13 C4.5625 12.9375 4.5625 12.9375 2 12 C-0.97307133 8.41181047 -1.41698173 5.58679904 -1 1 C-0.67 0.67 -0.34 0.34 0 0 Z " fill="#FEF7F9" transform="translate(145,92)"/>
</svg>
