<?xml version="1.0" encoding="UTF-8"?>
<svg version="1.1" xmlns="http://www.w3.org/2000/svg" width="200" height="200">
<path d="M0 0 C66 0 132 0 200 0 C200 66 200 132 200 200 C134 200 68 200 0 200 C0 134 0 68 0 0 Z " fill="#033C48" transform="translate(0,0)"/>
<path d="M0 0 C0 13.53 0 27.06 0 41 C-6.435 41.495 -6.435 41.495 -13 42 C-18.05006678 45.03004007 -19.62132768 47.18133577 -22.1875 52.125 C-22.96750726 53.56057176 -23.74880432 54.99544332 -24.53125 56.4296875 C-24.9334375 57.17573242 -25.335625 57.92177734 -25.75 58.69042969 C-27.84994674 62.57040941 -30.00096046 66.41824665 -32.1875 70.25 C-32.57897217 70.96430176 -32.97044434 71.67860352 -33.3737793 72.41455078 C-33.75961182 73.08728027 -34.14544434 73.76000977 -34.54296875 74.453125 C-34.87321045 75.04254883 -35.20345215 75.63197266 -35.54370117 76.23925781 C-37 78 -37 78 -43 82 C-48.28 82 -53.56 82 -59 82 C-59 68.47 -59 54.94 -59 41 C-52.565 40.505 -52.565 40.505 -46 40 C-40.9416694 37.01324041 -40.9416694 37.01324041 -38.1328125 32.53515625 C-37.64312988 31.65786865 -37.15344727 30.78058105 -36.64892578 29.87670898 C-36.14603027 28.94802002 -35.64313477 28.01933105 -35.125 27.0625 C-34.5976123 26.11769775 -34.07022461 25.17289551 -33.52685547 24.19946289 C-31.61814292 20.77931975 -29.73137381 17.34776359 -27.86328125 13.90527344 C-26.96073161 12.2437616 -26.04361375 10.59018456 -25.125 8.9375 C-24.65320313 8.05964844 -24.18140625 7.18179688 -23.6953125 6.27734375 C-17.06184991 -2.63350577 -11.34796504 0 0 0 Z " fill="#FA5733" transform="translate(159,59)"/>
<path d="M0 0 C0 13.53 0 27.06 0 41 C-4.62 41.33 -9.24 41.66 -14 42 C-18.51751041 45.61400833 -20.00745299 47.21900856 -22.59375 52.05078125 C-22.90775757 52.62781296 -23.22176514 53.20484467 -23.54528809 53.79936218 C-24.54053573 55.63170958 -25.52107197 57.47139018 -26.5 59.3125 C-37.08122964 79.04061482 -37.08122964 79.04061482 -43 82 C-48.28 82 -53.56 82 -59 82 C-59 68.47 -59 54.94 -59 41 C-52.565 40.505 -52.565 40.505 -46 40 C-40.94993322 36.96995993 -39.37867232 34.81866423 -36.8125 29.875 C-36.03249274 28.43942824 -35.25119568 27.00455668 -34.46875 25.5703125 C-34.0665625 24.82426758 -33.664375 24.07822266 -33.25 23.30957031 C-31.15005326 19.42959059 -28.99903954 15.58175335 -26.8125 11.75 C-26.42102783 11.03569824 -26.02955566 10.32139648 -25.6262207 9.58544922 C-25.24038818 8.91271973 -24.85455566 8.23999023 -24.45703125 7.546875 C-24.12678955 6.95745117 -23.79654785 6.36802734 -23.45629883 5.76074219 C-16.49582041 -2.65484379 -11.39496928 0 0 0 Z " fill="#FA5733" transform="translate(100,59)"/>
<path d="M0 0 C-3 1 -3 1 -16 1 C-16 14.53 -16 28.06 -16 42 C-1.64588864 42.14840253 -1.64588864 42.14840253 4 39 C5.38527765 37.29813369 5.38527765 37.29813369 6.47265625 35.26171875 C6.89740234 34.52373047 7.32214844 33.78574219 7.75976562 33.02539062 C8.18966797 32.25388672 8.61957031 31.48238281 9.0625 30.6875 C9.7131543 29.54764648 9.7131543 29.54764648 10.37695312 28.38476562 C11.21492205 26.9167257 12.0492382 25.44659302 12.87939453 23.97412109 C14.21296101 21.62483601 15.59530922 19.30737731 17 17 C17.495 18.98 17.495 18.98 18 21 C17.34 21 16.68 21 16 21 C15.71125 21.86625 15.4225 22.7325 15.125 23.625 C14.40617452 25.78147644 13.65881345 27.92878559 12.875 30.0625 C11.85066421 32.9095054 11.85066421 32.9095054 12.125 35.625 C12 38 12 38 10.4375 40.25 C4.96157982 44.18142987 -2.95899784 43.12313393 -9.4375 43.0625 C-10.35982422 43.05798828 -11.28214844 43.05347656 -12.23242188 43.04882812 C-14.48835048 43.03713938 -16.74413967 43.02075455 -19 43 C-18.8820767 37.03672101 -18.757853 31.07362002 -18.62768555 25.1105957 C-18.58426759 23.08035896 -18.54259774 21.05008408 -18.50268555 19.01977539 C-18.44514854 16.10811849 -18.38140722 13.19665486 -18.31640625 10.28515625 C-18.29969376 9.3716188 -18.28298126 8.45808136 -18.26576233 7.51686096 C-18.11387171 1.11387171 -18.11387171 1.11387171 -17 0 C-14.90200836 -0.26334623 -12.79557424 -0.46085629 -10.6875 -0.625 C-9.53636719 -0.72039062 -8.38523437 -0.81578125 -7.19921875 -0.9140625 C-4.47951309 -0.98711931 -2.55318105 -0.8447562 0 0 Z " fill="#322825" transform="translate(57,99)"/>
<path d="M0 0 C0 13.53 0 27.06 0 41 C-6.435 41.495 -6.435 41.495 -13 42 C-18.02553504 45.01532103 -18.85888995 45.92894987 -21 51 C-22.12383849 47.62848454 -22.16190374 46.31972498 -21 43 C-16 40 -16 40 -1 40 C-1 27.46 -1 14.92 -1 2 C-11.0576343 2.56585501 -11.0576343 2.56585501 -21 4 C-14.46970819 -2.82712326 -12.75117296 0 0 0 Z " fill="#BB6651" transform="translate(159,59)"/>
<path d="M0 0 C0.33 0 0.66 0 1 0 C1 13.2 1 26.4 1 40 C5.62 39.67 10.24 39.34 15 39 C15.33 37.68 15.66 36.36 16 35 C17.31321858 33.3174387 18.64613064 31.65002828 20 30 C20.33 29.01 20.66 28.02 21 27 C21.66 27 22.32 27 23 27 C22.67 25.68 22.34 24.36 22 23 C22.66 23 23.32 23 24 23 C24.33 22.34 24.66 21.68 25 21 C25.66 21 26.32 21 27 21 C25.22083278 27.76083544 21.43573573 35.41581556 16 40 C13 41 13 41 0 41 C0 27.47 0 13.94 0 0 Z " fill="#272F2E" transform="translate(100,59)"/>
<path d="M0 0 C-0.89074219 0.48855469 -1.78148438 0.97710937 -2.69921875 1.48046875 C-6.82257244 4.24025077 -8.59941685 7.98158378 -10.8125 12.3125 C-11.67107993 13.92299478 -12.53179869 15.53235094 -13.39453125 17.140625 C-14.03962646 18.35395508 -14.03962646 18.35395508 -14.69775391 19.59179688 C-16.7055456 23.30474349 -18.83521802 26.93941347 -21 30.5625 C-21.37358643 31.19905518 -21.74717285 31.83561035 -22.13208008 32.49145508 C-24.76014351 36.88007175 -24.76014351 36.88007175 -27 38 C-27 37.01 -27 36.02 -27 35 C-26.34 35 -25.68 35 -25 35 C-25.33 33.68 -25.66 32.36 -26 31 C-25.01 31 -24.02 31 -23 31 C-22.814375 29.5459375 -22.814375 29.5459375 -22.625 28.0625 C-22.41875 27.051875 -22.2125 26.04125 -22 25 C-21.34 24.67 -20.68 24.34 -20 24 C-19.09656316 22.11736119 -19.09656316 22.11736119 -18.375 19.9375 C-18.11460938 19.20402344 -17.85421875 18.47054687 -17.5859375 17.71484375 C-17.39257812 17.14894531 -17.19921875 16.58304688 -17 16 C-16.34 16 -15.68 16 -15 16 C-15 15.01 -15 14.02 -15 13 C-14.34 13 -13.68 13 -13 13 C-13 12.01 -13 11.02 -13 10 C-12.34 10 -11.68 10 -11 10 C-11.061875 9.21625 -11.12375 8.4325 -11.1875 7.625 C-11.125625 6.75875 -11.06375 5.8925 -11 5 C-10.01 4.34 -9.02 3.68 -8 3 C-8.33 2.01 -8.66 1.02 -9 0 C-5.62182575 -0.84454356 -3.32534757 -1.10844919 0 0 Z " fill="#282B2B" transform="translate(84,60)"/>
<path d="M0 0 C4.29 0 8.58 0 13 0 C13 0.33 13 0.66 13 1 C9.04 1 5.08 1 1 1 C1 13.54 1 26.08 1 39 C7.27 38.67 13.54 38.34 20 38 C16 41 16 41 0 41 C0 27.47 0 13.94 0 0 Z " fill="#C9634D" transform="translate(41,100)"/>
<path d="M0 0 C0.33 1.32 0.66 2.64 1 4 C0.34 4 -0.32 4 -1 4 C-1.433125 5.299375 -1.433125 5.299375 -1.875 6.625 C-2.59382548 8.78147644 -3.34118655 10.92878559 -4.125 13.0625 C-5.14933579 15.9095054 -5.14933579 15.9095054 -4.875 18.625 C-5 21 -5 21 -6.75 23.375 C-9 25 -9 25 -11.25 24.75 C-11.8275 24.5025 -12.405 24.255 -13 24 C-10.74578593 18.36072029 -7.93671167 13.26357707 -4.8125 8.0625 C-4.11737305 6.89364258 -4.11737305 6.89364258 -3.40820312 5.70117188 C-2.27592404 3.7984761 -1.13980965 1.89819071 0 0 Z " fill="#223439" transform="translate(74,116)"/>
<path d="M0 0 C4.62 0 9.24 0 14 0 C14 13.2 14 26.4 14 40 C13.67 40 13.34 40 13 40 C13 27.13 13 14.26 13 1 C4.95884881 1.71626123 4.95884881 1.71626123 -3 3 C-2.01 2.01 -1.02 1.02 0 0 Z " fill="#302E2C" transform="translate(86,100)"/>
<path d="M0 0 C0.66 0.33 1.32 0.66 2 1 C1.29875 2.11375 0.5975 3.2275 -0.125 4.375 C-3.149389 9.21055605 -6.07897923 14.10151844 -9 19 C-9.33 17.68 -9.66 16.36 -10 15 C-9.34 15 -8.68 15 -8 15 C-8.20625 14.21625 -8.4125 13.4325 -8.625 12.625 C-8.74875 11.75875 -8.8725 10.8925 -9 10 C-8.34 9.34 -7.68 8.68 -7 8 C-6.01 8 -5.02 8 -4 8 C-3.566875 6.2984375 -3.566875 6.2984375 -3.125 4.5625 C-2.75375 3.386875 -2.3825 2.21125 -2 1 C-1.34 0.67 -0.68 0.34 0 0 Z " fill="#2F3331" transform="translate(137,61)"/>
<path d="M0 0 C0.33 1.32 0.66 2.64 1 4 C0.34 4 -0.32 4 -1 4 C-1.10957031 4.61488281 -1.21914062 5.22976562 -1.33203125 5.86328125 C-1.49058594 6.67152344 -1.64914063 7.47976562 -1.8125 8.3125 C-1.96332031 9.11300781 -2.11414063 9.91351563 -2.26953125 10.73828125 C-3.08500756 13.26320524 -3.91953671 14.38069734 -6 16 C-6.66 16 -7.32 16 -8 16 C-8 16.99 -8 17.98 -8 19 C-8.66 19 -9.32 19 -10 19 C-8.59478925 15.28429849 -6.91641021 11.85328453 -5 8.375 C-4.484375 7.43398437 -3.96875 6.49296875 -3.4375 5.5234375 C-2.3640955 3.63914591 -1.20291339 1.80437008 0 0 Z " fill="#D75B41" transform="translate(70,77)"/>
<path d="M0 0 C1.25425781 0.02707031 2.50851563 0.05414063 3.80078125 0.08203125 C4.75339844 0.11683594 5.70601562 0.15164062 6.6875 0.1875 C6.6875 0.5175 6.6875 0.8475 6.6875 1.1875 C5.95144531 1.22488281 5.21539062 1.26226562 4.45703125 1.30078125 C-3.00761167 1.61025727 -3.00761167 1.61025727 -9.3125 5.1875 C-11.13879794 8.25430799 -11.13879794 8.25430799 -12.3125 11.1875 C-13.43633849 7.81598454 -13.47440374 6.50722498 -12.3125 3.1875 C-8.24576055 -0.00076314 -5.07270536 -0.14222538 0 0 Z " fill="#D55F43" transform="translate(150.3125,98.8125)"/>
<path d="M0 0 C0.66 0.33 1.32 0.66 2 1 C1.21718695 2.33855056 0.42348123 3.67073644 -0.375 5 C-0.81585938 5.7425 -1.25671875 6.485 -1.7109375 7.25 C-2.34902344 8.11625 -2.34902344 8.11625 -3 9 C-3.66 9 -4.32 9 -5 9 C-4.67 10.32 -4.34 11.64 -4 13 C-6.475 14.485 -6.475 14.485 -9 16 C-7.50851242 10.18319845 -4.28706435 4.28706435 0 0 Z " fill="#D15C45" transform="translate(80,61)"/>
<path d="M0 0 C0 0.66 0 1.32 0 2 C-5.28 2 -10.56 2 -16 2 C-16 1.34 -16 0.68 -16 0 C-14.08416353 -0.1958009 -12.16727461 -0.38132214 -10.25 -0.5625 C-8.64898437 -0.71912109 -8.64898437 -0.71912109 -7.015625 -0.87890625 C-4.35858796 -0.98560074 -2.50039428 -0.81930395 0 0 Z " fill="#182A29" transform="translate(100,57)"/>
<path d="M0 0 C0.33 1.32 0.66 2.64 1 4 C0.34 4 -0.32 4 -1 4 C-1 5.32 -1 6.64 -1 8 C-1.66 8 -2.32 8 -3 8 C-3 8.99 -3 9.98 -3 11 C-3.66 11 -4.32 11 -5 11 C-5 12.32 -5 13.64 -5 15 C-5.99 15 -6.98 15 -8 15 C-6.62712658 11.30123909 -4.93644547 8.0485524 -2.875 4.6875 C-2.33617187 3.80449219 -1.79734375 2.92148438 -1.2421875 2.01171875 C-0.83226562 1.34785156 -0.42234375 0.68398437 0 0 Z " fill="#323C3A" transform="translate(138,108)"/>
<path d="M0 0 C3.33388318 0.16951948 4.94441987 0.43192871 7.6875 2.1875 C0.9375 4.1875 0.9375 4.1875 -1.3125 4.1875 C-1.6425 4.8475 -1.9725 5.5075 -2.3125 6.1875 C-2.9725 6.1875 -3.6325 6.1875 -4.3125 6.1875 C-4.355221 4.52138095 -4.35313832 2.85367115 -4.3125 1.1875 C-3.3125 0.1875 -3.3125 0.1875 0 0 Z " fill="#072F3E" transform="translate(76.3125,56.8125)"/>
<path d="M0 0 C0.33 1.32 0.66 2.64 1 4 C0.34 4 -0.32 4 -1 4 C-0.67 4.99 -0.34 5.98 0 7 C-0.99 7.33 -1.98 7.66 -3 8 C-3.67156616 9.93618425 -3.67156616 9.93618425 -4 12 C-4.33 12.66 -4.66 13.32 -5 14 C-5.66 14 -6.32 14 -7 14 C-5.53967505 8.68972746 -3.01679014 4.53669968 0 0 Z " fill="#CE5D44" transform="translate(132,72)"/>
<path d="M0 0 C0.33 0.66 0.66 1.32 1 2 C1.66 2 2.32 2 3 2 C3.75 3.75 3.75 3.75 4 6 C2.0625 8.25 2.0625 8.25 0 10 C0 8.35 0 6.7 0 5 C-0.66 5 -1.32 5 -2 5 C-1.34 3.35 -0.68 1.7 0 0 Z " fill="#184248" transform="translate(124,132)"/>
<path d="M0 0 C0.66 1.32 1.32 2.64 2 4 C0.35 6.31 -1.3 8.62 -3 11 C-3.66 10.67 -4.32 10.34 -5 10 C-4.6875 8.125 -4.6875 8.125 -4 6 C-3.01 5.34 -2.02 4.68 -1 4 C-0.27617533 1.94074861 -0.27617533 1.94074861 0 0 Z " fill="#E05E3F" transform="translate(123,128)"/>
<path d="M0 0 C0.33 1.32 0.66 2.64 1 4 C0.34 4 -0.32 4 -1 4 C-1.28875 4.7425 -1.5775 5.485 -1.875 6.25 C-2.82302644 8.56739797 -3.84845911 10.77917115 -5 13 C-5.66 13 -6.32 13 -7 13 C-5.35821735 8.22390502 -2.73453298 4.20617096 0 0 Z " fill="#322F2E" transform="translate(82,103)"/>
<path d="M0 0 C0.74958984 0.01353516 1.49917969 0.02707031 2.27148438 0.04101562 C4.11879767 0.07631461 5.96574066 0.13012083 7.8125 0.1875 C7.8125 0.5175 7.8125 0.8475 7.8125 1.1875 C6.85988281 1.24808594 5.90726563 1.30867188 4.92578125 1.37109375 C3.67152344 1.45488281 2.41726562 1.53867187 1.125 1.625 C-0.11636719 1.70621094 -1.35773438 1.78742187 -2.63671875 1.87109375 C-5.56930337 2.13241317 -8.32191617 2.53548379 -11.1875 3.1875 C-8.45797954 -0.92296361 -4.41882331 -0.15051014 0 0 Z " fill="#DA5E46" transform="translate(149.1875,59.8125)"/>
<path d="M0 0 C0.33 0 0.66 0 1 0 C1.32613618 4.67461851 0.70582788 7.16674383 -2 11 C-2.33 9.68 -2.66 8.36 -3 7 C-2.34 7 -1.68 7 -1 7 C-1.309375 5.824375 -1.309375 5.824375 -1.625 4.625 C-1.74875 3.75875 -1.8725 2.8925 -2 2 C-1.34 1.34 -0.68 0.68 0 0 Z " fill="#1D3639" transform="translate(130,69)"/>
<path d="M0 0 C0.99 0 1.98 0 3 0 C1.90931332 3.77545388 1.0916909 6.47043472 -2 9 C-1.51421457 5.87709365 -1.0013988 3.00419641 0 0 Z " fill="#D55E46" transform="translate(77,105)"/>
<path d="M0 0 C1 3 1 3 0.25 5.625 C-1 8 -1 8 -4 9 C-2.80100302 5.9168649 -1.52299523 2.93720508 0 0 Z " fill="#3B3B3B" transform="translate(129,123)"/>
<path d="M0 0 C0.33 1.32 0.66 2.64 1 4 C-0.875 5.0625 -0.875 5.0625 -3 6 C-3.66 5.67 -4.32 5.34 -5 5 C-5 4.34 -5 3.68 -5 3 C-2.5 1.375 -2.5 1.375 0 0 Z " fill="#DF5B38" transform="translate(59,96)"/>
<path d="M0 0 C3.125 -0.1875 3.125 -0.1875 6 0 C6 0.66 6 1.32 6 2 C3.36 2.33 0.72 2.66 -2 3 C-1.34 2.01 -0.68 1.02 0 0 Z " fill="#072F3C" transform="translate(51,96)"/>
</svg>
